<?xml version="1.0" standalone="no"?>
<!DOCTYPE svg PUBLIC "-//W3C//DTD SVG 20010904//EN"
 "http://www.w3.org/TR/2001/REC-SVG-20010904/DTD/svg10.dtd">
<svg version="1.0" xmlns="http://www.w3.org/2000/svg"
 width="1920.000000pt" height="1080.000000pt" viewBox="0 0 1920.000000 1080.000000"
 preserveAspectRatio="xMidYMid meet">

<g transform="translate(0.000000,1080.000000) scale(0.100000,-0.100000)"
fill="#000000" stroke="none">
<path d="M0 10014 c0 -705 2 -784 15 -770 17 17 40 12 49 -9 3 -8 -2 -21 -10
-30 -19 -19 -19 -19 -38 1 -15 14 -16 -23 -16 -410 0 -272 4 -427 10 -431 13
-8 13 -82 0 -90 -7 -4 -10 -933 -10 -2756 l0 -2749 21 0 c15 0 20 -5 17 -22
-2 -15 -9 -22 -21 -22 -16 2 -17 -69 -17 -1362 l0 -1364 9600 0 9600 0 0 5400
0 5400 -368 0 -367 0 -10 -22 c-7 -15 -19 -23 -35 -23 -16 0 -28 8 -35 23
l-10 22 -2444 0 c-1902 0 -2442 -3 -2433 -12 18 -18 14 -63 -6 -81 -51 -46
-134 14 -102 73 l11 20 -2885 0 c-2298 0 -2886 -3 -2890 -12 -5 -10 -7 -10
-12 0 -4 9 -776 12 -3810 12 l-3804 0 0 -786z m8134 755 c-3 -5 -10 -7 -15 -3
-5 3 -7 10 -3 15 3 5 10 7 15 3 5 -3 7 -10 3 -15z m8536 6 c0 -8 -7 -15 -15
-15 -16 0 -20 12 -8 23 11 12 23 8 23 -8z m-12350 -8 c0 -8 -3 -17 -7 -20 -9
-9 -34 13 -27 24 8 14 34 11 34 -4z m10718 -33 c22 -15 30 -57 14 -80 -9 -13
-46 -34 -62 -34 -19 0 -60 48 -60 70 0 27 34 60 63 60 12 0 33 -7 45 -16z
m-948 -24 c15 -28 -4 -60 -35 -60 -14 0 -29 8 -35 20 -15 28 4 60 35 60 14 0
29 -8 35 -20z m-10285 -41 c0 -7 -8 -15 -17 -17 -18 -3 -25 18 -11 32 10 10
28 1 28 -15z m2950 -7 c0 -18 -20 -15 -23 4 -3 10 1 15 10 12 7 -3 13 -10 13
-16z m3523 -19 c-4 -35 -43 -45 -53 -14 -9 28 1 41 31 41 22 0 25 -4 22 -27z
m2832 17 c0 -5 -7 -10 -15 -10 -8 0 -15 5 -15 10 0 6 7 10 15 10 8 0 15 -4 15
-10z m-120 -18 c0 -13 -12 -22 -22 -16 -10 6 -1 24 13 24 5 0 9 -4 9 -8z
m-9862 -85 c2 -10 -3 -17 -12 -17 -10 0 -16 9 -16 21 0 24 23 21 28 -4z
m-1536 -12 c0 -5 -5 -11 -11 -13 -6 -2 -11 4 -11 13 0 9 5 15 11 13 6 -2 11
-8 11 -13z m3498 -4 c7 -15 6 -24 -6 -36 -9 -9 -21 -14 -27 -12 -18 6 -31 33
-24 51 9 22 44 20 57 -3z m3719 -15 c7 -8 11 -27 9 -43 -6 -51 -88 -41 -88 11
0 42 53 63 79 32z m1341 -6 c0 -5 -4 -10 -10 -10 -5 0 -10 5 -10 10 0 6 5 10
10 10 6 0 10 -4 10 -10z m-5512 -32 c27 -27 3 -88 -34 -88 -23 0 -54 38 -47
57 15 43 54 58 81 31z m1250 0 c30 -30 3 -82 -40 -76 -29 4 -47 50 -28 72 15
19 51 21 68 4z m3082 -8 c0 -5 -4 -10 -10 -10 -5 0 -10 5 -10 10 0 6 5 10 10
10 6 0 10 -4 10 -10z m1050 0 c0 -5 -4 -10 -10 -10 -5 0 -10 5 -10 10 0 6 5
10 10 10 6 0 10 -4 10 -10z m-1911 -73 c8 -10 7 -17 -1 -25 -16 -16 -25 -15
-32 4 -12 30 12 45 33 21z m-104 -37 c-5 -8 -11 -8 -17 -2 -6 6 -7 16 -3 22 5
8 11 8 17 2 6 -6 7 -16 3 -22z m9212 -26 c3 -8 -1 -22 -9 -30 -12 -12 -17 -12
-33 -1 -23 17 -14 47 15 47 11 0 23 -7 27 -16z m-6350 -10 c8 -21 -13 -42 -28
-27 -13 13 -5 43 11 43 6 0 13 -7 17 -16z m541 -32 c2 -7 -6 -12 -17 -12 -21
0 -27 11 -14 24 9 9 26 2 31 -12z m-6088 -2 c0 -5 -4 -10 -10 -10 -5 0 -10 5
-10 10 0 6 5 10 10 10 6 0 10 -4 10 -10z m3490 6 c0 -3 -4 -8 -10 -11 -5 -3
-10 -1 -10 4 0 6 5 11 10 11 6 0 10 -2 10 -4z m9905 -17 c0 -7 -8 -15 -17 -17
-18 -3 -25 18 -11 32 10 10 28 1 28 -15z m-11875 -64 c0 -8 -4 -15 -10 -15 -5
0 -10 7 -10 15 0 8 5 15 10 15 6 0 10 -7 10 -15z m10860 -69 c0 -18 -21 -35
-36 -29 -17 6 -18 25 -3 40 13 13 39 6 39 -11z m-176 -13 c10 -26 -23 -48 -42
-29 -8 8 -12 22 -9 30 8 21 43 20 51 -1z m-14139 -3 c-3 -5 -10 -10 -16 -10
-5 0 -9 5 -9 10 0 6 7 10 16 10 8 0 12 -4 9 -10z m8317 -15 c0 -5 -5 -11 -11
-13 -6 -2 -11 4 -11 13 0 9 5 15 11 13 6 -2 11 -8 11 -13z m-1562 -25 c0 -5
-7 -10 -15 -10 -8 0 -15 5 -15 10 0 6 7 10 15 10 8 0 15 -4 15 -10z m8550 -55
c26 -31 -13 -82 -44 -56 -19 16 -21 57 -3 64 22 9 34 7 47 -8z m-5040 -10 c0
-8 -7 -15 -15 -15 -8 0 -15 7 -15 15 0 8 7 15 15 15 8 0 15 -7 15 -15z
m-13417 -16 c19 -27 10 -58 -20 -70 -48 -18 -85 29 -56 70 8 12 25 21 38 21
13 0 30 -9 38 -21z m7562 -14 c31 -30 32 -71 3 -102 -27 -29 -57 -29 -92 -2
-19 15 -26 30 -26 54 0 24 7 39 26 54 35 27 59 26 89 -4z m-6284 -1 c19 -23
-1 -49 -37 -49 -20 0 -30 6 -32 18 -8 40 43 63 69 31z m1749 -13 c0 -6 -4 -13
-10 -16 -5 -3 -10 1 -10 9 0 9 5 16 10 16 6 0 10 -4 10 -9z m15795 -11 c8 -26
-1 -40 -26 -40 -22 0 -34 22 -25 45 8 22 44 18 51 -5z m-9895 -10 c0 -5 -7
-10 -16 -10 -8 0 -12 5 -9 10 3 6 10 10 16 10 5 0 9 -4 9 -10z m9205 -45 c0
-22 -31 -33 -47 -17 -17 17 -1 44 24 40 15 -2 23 -10 23 -23z m-12609 -6 c10
-17 -13 -36 -27 -22 -12 12 -4 33 11 33 5 0 12 -5 16 -11z m2370 0 c10 -17
-13 -36 -27 -22 -12 12 -4 33 11 33 5 0 12 -5 16 -11z m-2938 -37 c4 -28 -24
-40 -45 -19 -21 21 -9 49 19 45 15 -2 24 -11 26 -26z m-3768 8 c0 -5 -4 -10
-10 -10 -5 0 -10 5 -10 10 0 6 5 10 10 10 6 0 10 -4 10 -10z m2250 0 c0 -5 -4
-10 -10 -10 -5 0 -10 5 -10 10 0 6 5 10 10 10 6 0 10 -4 10 -10z m4227 -16 c3
-8 1 -20 -5 -26 -15 -15 -43 8 -35 28 7 19 32 18 40 -2z m-577 -13 c14 -28
-18 -66 -48 -57 -26 9 -38 42 -22 61 18 21 57 18 70 -4z m2628 -9 c2 -7 -3
-12 -12 -12 -9 0 -16 7 -16 16 0 17 22 14 28 -4z m-50 -3 c-2 -6 -8 -10 -13
-10 -5 0 -11 4 -13 10 -2 6 4 11 13 11 9 0 15 -5 13 -11z m1193 -22 c-1 -12
-15 -9 -19 4 -3 6 1 10 8 8 6 -3 11 -8 11 -12z m1319 3 c0 -5 -4 -10 -10 -10
-5 0 -10 5 -10 10 0 6 5 10 10 10 6 0 10 -4 10 -10z m-5645 -90 c0 -18 -6 -26
-23 -28 -24 -4 -38 18 -28 44 3 9 15 14 28 12 17 -2 23 -10 23 -28z m-4015 -5
c0 -8 -4 -15 -10 -15 -5 0 -10 7 -10 15 0 8 5 15 10 15 6 0 10 -7 10 -15z
m5656 4 c8 -14 -18 -31 -30 -19 -9 9 0 30 14 30 5 0 12 -5 16 -11z m9005 -12
c-13 -13 -26 -3 -16 12 3 6 11 8 17 5 6 -4 6 -10 -1 -17z m-6821 -7 c38 -38
15 -90 -40 -90 -39 0 -65 37 -51 73 16 41 59 49 91 17z m2207 -6 c-9 -9 -28 6
-21 18 4 6 10 6 17 -1 6 -6 8 -13 4 -17z m-3307 6 c0 -5 -4 -10 -10 -10 -5 0
-10 5 -10 10 0 6 5 10 10 10 6 0 10 -4 10 -10z m4340 -20 c0 -13 -7 -20 -20
-20 -13 0 -20 7 -20 20 0 13 7 20 20 20 13 0 20 -7 20 -20z m-6345 -25 c45
-44 19 -115 -43 -117 -69 -2 -99 79 -46 121 35 27 59 26 89 -4z m8205 11 c28
-35 -11 -93 -47 -70 -36 22 -23 84 17 84 10 0 23 -7 30 -14z m1907 -2 c7 -18
-17 -38 -31 -24 -11 11 -1 40 14 40 6 0 13 -7 17 -16z m-16167 -44 c0 -23 -13
-32 -34 -24 -19 7 -21 25 -5 41 16 16 39 5 39 -17z m2510 10 c0 -5 -4 -10 -10
-10 -5 0 -10 5 -10 10 0 6 5 10 10 10 6 0 10 -4 10 -10z m11520 -15 c16 -8 31
-24 35 -35 8 -26 -4 -82 -16 -74 -5 3 -9 1 -9 -5 0 -5 -9 -13 -20 -16 -77 -24
-132 64 -75 120 28 29 45 31 85 10z m-12242 -36 c20 -31 -1 -47 -22 -18 -9 13
-16 27 -16 31 0 16 26 7 38 -13z m13612 -14 c0 -8 -4 -15 -10 -15 -5 0 -10 7
-10 15 0 8 5 15 10 15 6 0 10 -7 10 -15z m-15080 -16 c0 -5 -7 -9 -15 -9 -15
0 -20 12 -9 23 8 8 24 -1 24 -14z m7194 -20 c-3 -5 -10 -7 -15 -3 -5 3 -7 10
-3 15 3 5 10 7 15 3 5 -3 7 -10 3 -15z m5966 1 c24 -24 26 -58 4 -89 -16 -23
-37 -25 -109 -9 -21 5 -35 38 -16 38 6 0 11 10 11 22 0 53 71 77 110 38z
m-6600 -30 c0 -5 -4 -10 -10 -10 -5 0 -10 5 -10 10 0 6 5 10 10 10 6 0 10 -4
10 -10z m188 -21 c-2 -6 -8 -10 -13 -10 -5 0 -11 4 -13 10 -2 6 4 11 13 11 9
0 15 -5 13 -11z m-8400 -16 c5 -17 -26 -29 -40 -15 -6 6 -7 15 -3 22 9 14 37
9 43 -7z m4043 -9 c26 -24 24 -68 -6 -100 -28 -30 -54 -28 -98 7 -31 24 -34
45 -9 89 15 29 21 31 55 27 21 -3 47 -13 58 -23z m9039 11 c20 -25 8 -50 -25
-50 -21 0 -31 5 -33 18 -4 21 14 47 33 47 7 0 18 -7 25 -15z m-12352 -4 c23
-14 10 -46 -18 -46 -16 0 -26 6 -28 19 -3 16 12 36 28 36 3 0 11 -4 18 -9z
m4052 -21 c0 -5 -4 -10 -10 -10 -5 0 -10 5 -10 10 0 6 5 10 10 10 6 0 10 -4
10 -10z m1210 -25 c0 -8 -7 -15 -15 -15 -8 0 -15 7 -15 15 0 8 7 15 15 15 8 0
15 -7 15 -15z m94 -1 c8 -21 -11 -44 -36 -44 -21 0 -33 22 -24 45 7 20 52 19
60 -1z m11024 7 c8 -4 12 -19 10 -32 -2 -19 -9 -24 -33 -24 -21 0 -31 5 -33
18 -8 40 22 60 56 38z m-10818 -17 c0 -8 -5 -12 -10 -9 -6 4 -8 11 -5 16 9 14
15 11 15 -7z m-115 -4 c3 -5 1 -10 -4 -10 -6 0 -11 5 -11 10 0 6 2 10 4 10 3
0 8 -4 11 -10z m3040 -10 c3 -6 -1 -13 -10 -16 -19 -8 -30 0 -20 15 8 14 22
14 30 1z m-4662 -17 c28 -31 30 -66 7 -96 -43 -54 -130 -21 -130 49 0 8 11 26
25 39 29 29 75 33 98 8z m2594 -9 c-9 -9 -28 6 -21 18 4 6 10 6 17 -1 6 -6 8
-13 4 -17z m4958 5 c0 -7 -8 -15 -17 -17 -18 -3 -25 18 -11 32 10 10 28 1 28
-15z m4355 -4 c0 -8 -4 -15 -9 -15 -13 0 -22 16 -14 24 11 11 23 6 23 -9z
m539 -11 c25 -32 26 -47 5 -79 -21 -33 -75 -34 -104 -3 -27 29 -25 54 5 83 32
33 68 32 94 -1z m-13922 5 c16 -16 5 -39 -17 -39 -23 0 -32 13 -24 34 7 19 25
21 41 5z m2843 -9 c0 -5 -4 -10 -10 -10 -5 0 -10 5 -10 10 0 6 5 10 10 10 6 0
10 -4 10 -10z m7174 -16 c9 -8 16 -19 16 -24 0 -13 -30 -40 -44 -40 -34 0 -48
52 -18 69 23 14 28 14 46 -5z m2083 0 c3 -8 1 -20 -5 -26 -15 -15 -43 8 -35
28 7 19 32 18 40 -2z m-11318 -12 c11 -20 -3 -42 -25 -42 -19 0 -29 41 -13 51
20 13 27 11 38 -9z m1591 8 c0 -5 -4 -10 -10 -10 -5 0 -10 5 -10 10 0 6 5 10
10 10 6 0 10 -4 10 -10z m-1496 -41 c-8 -14 -34 -11 -34 4 0 8 3 17 7 20 9 9
34 -13 27 -24z m5336 17 c0 -8 -4 -17 -9 -21 -12 -7 -24 12 -16 25 9 15 25 12
25 -4z m1330 -1 c0 -8 -9 -15 -20 -15 -11 0 -20 7 -20 15 0 8 9 15 20 15 11 0
20 -7 20 -15z m670 -25 c0 -5 -4 -10 -10 -10 -5 0 -10 5 -10 10 0 6 5 10 10
10 6 0 10 -4 10 -10z m-3230 -26 c0 -17 -22 -14 -28 4 -2 7 3 12 12 12 9 0 16
-7 16 -16z m6720 12 c0 -3 -4 -8 -10 -11 -5 -3 -10 -1 -10 4 0 6 5 11 10 11 6
0 10 -2 10 -4z m-830 -26 c0 -21 -24 -28 -35 -10 -8 14 3 30 21 30 8 0 14 -9
14 -20z m-5099 -3 c-1 -12 -15 -9 -19 4 -3 6 1 10 8 8 6 -3 11 -8 11 -12z
m3577 2 c-2 -6 -8 -10 -13 -10 -5 0 -11 4 -13 10 -2 6 4 11 13 11 9 0 15 -5
13 -11z m-7330 -10 c-2 -6 -8 -10 -13 -10 -5 0 -11 4 -13 10 -2 6 4 11 13 11
9 0 15 -5 13 -11z m10687 -10 c10 -15 -1 -23 -20 -15 -9 3 -13 10 -10 16 8 13
22 13 30 -1z m-13775 -14 c0 -8 -7 -15 -15 -15 -16 0 -20 12 -8 23 11 12 23 8
23 -8z m8521 5 c29 -16 26 -67 -6 -82 -21 -9 -28 -8 -45 7 -24 22 -25 42 -3
67 19 21 27 22 54 8z m-6273 -12 c28 -28 1 -98 -38 -98 -18 0 -43 25 -53 53
-14 38 61 75 91 45z m7032 -28 c0 -5 -7 -10 -15 -10 -8 0 -15 5 -15 10 0 6 7
10 15 10 8 0 15 -4 15 -10z m-5860 -15 c0 -8 -4 -15 -10 -15 -5 0 -10 7 -10
15 0 8 5 15 10 15 6 0 10 -7 10 -15z m8848 -17 c-6 -18 -28 -21 -28 -4 0 9 7
16 16 16 9 0 14 -5 12 -12z m-2311 -10 c4 -7 17 -18 28 -24 13 -7 21 -24 23
-46 2 -28 -2 -37 -22 -48 -53 -28 -111 36 -72 79 9 10 16 25 16 34 0 20 16 22
27 5z m4291 1 c-2 -6 -8 -10 -13 -10 -5 0 -11 4 -13 10 -2 6 4 11 13 11 9 0
15 -5 13 -11z m-11088 -9 c0 -5 -4 -10 -10 -10 -5 0 -10 5 -10 10 0 6 5 10 10
10 6 0 10 -4 10 -10z m885 1 c3 -5 1 -12 -5 -16 -5 -3 -10 1 -10 9 0 18 6 21
15 7z m1955 -10 c0 -27 -19 -36 -37 -18 -18 18 -9 37 18 37 12 0 19 -7 19 -19z
m4838 -29 c2 -7 -3 -12 -12 -12 -9 0 -16 7 -16 16 0 17 22 14 28 -4z m-4988
-2 c0 -5 -4 -10 -9 -10 -6 0 -13 5 -16 10 -3 6 1 10 9 10 9 0 16 -4 16 -10z
m-3073 -16 c8 -20 -8 -36 -26 -25 -15 10 -8 41 9 41 6 0 13 -7 17 -16z m3485
1 c0 -5 -5 -11 -11 -13 -6 -2 -11 4 -11 13 0 9 5 15 11 13 6 -2 11 -8 11 -13z
m-5458 -41 c31 -30 9 -84 -34 -84 -24 0 -50 37 -43 59 7 20 32 41 49 41 7 0
20 -7 28 -16z m13267 -17 c-13 -13 -26 -3 -16 12 3 6 11 8 17 5 6 -4 6 -10 -1
-17z m-10403 -26 c23 -14 10 -46 -18 -46 -16 0 -26 6 -28 19 -3 16 12 36 28
36 3 0 11 -4 18 -9z m3236 0 c3 -5 -1 -14 -8 -20 -16 -13 -32 2 -21 19 8 12
22 13 29 1z m7944 -19 c3 -18 -1 -22 -22 -22 -19 0 -26 5 -26 18 0 39 43 43
48 4z m-6220 -49 c3 -22 -28 -40 -48 -28 -12 7 -13 38 -3 49 15 14 48 1 51
-21z m6412 -63 c0 -5 -7 -10 -16 -10 -8 0 -12 5 -9 10 3 6 10 10 16 10 5 0 9
-4 9 -10z m-970 -20 c0 -21 -24 -28 -35 -10 -8 14 3 30 21 30 8 0 14 -9 14
-20z m-1278 -7 c10 -9 18 -27 18 -40 0 -27 -33 -63 -58 -63 -26 0 -62 37 -62
62 0 50 64 76 102 41z m-12402 -13 c0 -5 -5 -10 -11 -10 -5 0 -7 5 -4 10 3 6
8 10 11 10 2 0 4 -4 4 -10z m3111 -6 c11 -14 10 -18 -6 -30 -16 -12 -21 -12
-32 -1 -16 15 -7 47 12 47 7 0 19 -7 26 -16z m4399 6 c0 -5 -4 -10 -10 -10 -5
0 -10 5 -10 10 0 6 5 10 10 10 6 0 10 -4 10 -10z m312 -16 c14 -31 1 -57 -31
-62 -28 -4 -51 14 -51 42 0 50 62 65 82 20z m5308 11 c0 -8 -7 -15 -15 -15
-16 0 -20 12 -8 23 11 12 23 8 23 -8z m-7180 -5 c0 -5 -4 -10 -10 -10 -5 0
-10 5 -10 10 0 6 5 10 10 10 6 0 10 -4 10 -10z m-402 -11 c-2 -6 -8 -10 -13
-10 -5 0 -11 4 -13 10 -2 6 4 11 13 11 9 0 15 -5 13 -11z m6222 -7 c0 -13 -12
-22 -22 -16 -10 6 -1 24 13 24 5 0 9 -4 9 -8z m-3020 -43 c0 -5 -4 -9 -10 -9
-5 0 -10 7 -10 16 0 8 5 12 10 9 6 -3 10 -10 10 -16z m-3024 -20 c10 -17 -23
-46 -37 -32 -7 7 -9 19 -6 27 7 18 33 21 43 5z m-886 -28 c0 -6 -4 -13 -10
-16 -5 -3 -10 1 -10 9 0 9 5 16 10 16 6 0 10 -4 10 -9z m940 -11 c0 -5 -4 -10
-10 -10 -5 0 -10 5 -10 10 0 6 5 10 10 10 6 0 10 -4 10 -10z m3482 -15 c0 -5
-5 -11 -11 -13 -6 -2 -11 4 -11 13 0 9 5 15 11 13 6 -2 11 -8 11 -13z m-4642
-26 c0 -5 -7 -9 -15 -9 -15 0 -20 12 -9 23 8 8 24 -1 24 -14z m2275 -9 c0 -22
-29 -18 -33 3 -3 14 1 18 15 15 10 -2 18 -10 18 -18z m-8575 0 c0 -5 -4 -10
-10 -10 -5 0 -10 5 -10 10 0 6 5 10 10 10 6 0 10 -4 10 -10z m3940 -5 c0 -8
-4 -15 -10 -15 -5 0 -10 7 -10 15 0 8 5 15 10 15 6 0 10 -7 10 -15z m3908 -6
c-2 -6 -8 -10 -13 -10 -5 0 -11 4 -13 10 -2 6 4 11 13 11 9 0 15 -5 13 -11z
m1780 -20 c-2 -6 -8 -10 -13 -10 -5 0 -11 4 -13 10 -2 6 4 11 13 11 9 0 15 -5
13 -11z m-1288 -49 c0 -5 -4 -10 -10 -10 -5 0 -10 5 -10 10 0 6 5 10 10 10 6
0 10 -4 10 -10z m-685 -30 c-5 -8 -11 -8 -17 -2 -6 6 -7 16 -3 22 5 8 11 8 17
2 6 -6 7 -16 3 -22z m-2095 -10 c0 -13 -7 -20 -20 -20 -13 0 -20 7 -20 20 0
13 7 20 20 20 13 0 20 -7 20 -20z m5640 10 c0 -5 -4 -10 -10 -10 -5 0 -10 5
-10 10 0 6 5 10 10 10 6 0 10 -4 10 -10z m4077 -6 c8 -21 -13 -42 -28 -27 -13
13 -5 43 11 43 6 0 13 -7 17 -16z m-13572 -29 c0 -23 -34 -33 -45 -14 -13 20
1 40 24 37 13 -2 21 -10 21 -23z m6155 15 c0 -5 -4 -10 -10 -10 -5 0 -10 5
-10 10 0 6 5 10 10 10 6 0 10 -4 10 -10z m-722 -23 c4 -21 -25 -34 -40 -19 -8
8 -8 16 2 27 16 19 34 15 38 -8z m3447 -67 c0 -18 -6 -26 -23 -28 -27 -4 -40
22 -22 44 19 22 45 13 45 -16z m-2111 14 c21 -8 21 -43 0 -51 -8 -3 -23 1 -31
10 -13 13 -14 19 -3 31 14 18 13 18 34 10z m-4534 -29 c0 -8 -4 -15 -10 -15
-5 0 -10 7 -10 15 0 8 5 15 10 15 6 0 10 -7 10 -15z m10160 -25 c0 -5 -4 -10
-10 -10 -5 0 -10 5 -10 10 0 6 5 10 10 10 6 0 10 -4 10 -10z m-4070 -20 c0 -5
-4 -10 -10 -10 -5 0 -10 5 -10 10 0 6 5 10 10 10 6 0 10 -4 10 -10z m-8080
-19 c16 -31 12 -49 -14 -66 -49 -32 -101 31 -56 67 29 23 57 23 70 -1z m5205
-10 c3 -5 1 -12 -5 -16 -5 -3 -10 1 -10 9 0 18 6 21 15 7z m6520 -21 c0 -18
-6 -26 -23 -28 -24 -4 -38 18 -28 44 3 9 15 14 28 12 17 -2 23 -10 23 -28z
m-5150 -20 c-5 -8 -11 -8 -17 -2 -6 6 -7 16 -3 22 5 8 11 8 17 2 6 -6 7 -16 3
-22z m-9185 0 c0 -5 -4 -10 -9 -10 -6 0 -13 5 -16 10 -3 6 1 10 9 10 9 0 16
-4 16 -10z m1917 -26 c-9 -9 -28 6 -21 18 4 6 10 6 17 -1 6 -6 8 -13 4 -17z
m-1981 5 c10 -17 -13 -36 -27 -22 -12 12 -4 33 11 33 5 0 12 -5 16 -11z m8884
1 c0 -5 -4 -10 -10 -10 -5 0 -10 5 -10 10 0 6 5 10 10 10 6 0 10 -4 10 -10z
m8248 -22 c16 -16 15 -33 -3 -51 -19 -19 -52 -11 -60 15 -12 37 35 64 63 36z
m-9478 -64 c0 -8 -4 -12 -10 -9 -5 3 -10 10 -10 16 0 5 5 9 10 9 6 0 10 -7 10
-16z m-3270 -9 c0 -8 -4 -15 -9 -15 -13 0 -22 16 -14 24 11 11 23 6 23 -9z
m6645 4 c10 -15 -1 -23 -20 -15 -9 3 -13 10 -10 16 8 13 22 13 30 -1z m-4653
-14 c0 -5 -5 -11 -11 -13 -6 -2 -11 4 -11 13 0 9 5 15 11 13 6 -2 11 -8 11
-13z m-442 -10 c0 -8 -7 -15 -15 -15 -8 0 -15 7 -15 15 0 8 7 15 15 15 8 0 15
-7 15 -15z m6724 -11 c14 -15 26 -31 26 -35 0 -5 7 -9 15 -9 8 0 15 -7 15 -15
0 -8 -6 -15 -14 -15 -7 0 -20 -9 -27 -20 -8 -12 -30 -23 -51 -27 -31 -4 -41
-1 -63 21 -22 22 -26 33 -21 59 7 36 40 66 72 67 12 0 33 -12 48 -26z m2184
-6 c28 -28 2 -88 -38 -88 -11 0 -27 11 -36 25 -15 23 -15 27 0 50 18 27 54 33
74 13z m-14194 -24 c21 -8 21 -53 0 -61 -18 -7 -45 6 -51 24 -2 6 3 18 12 27
19 18 18 18 39 10z m2588 -26 c-15 -15 -26 -4 -18 18 5 13 9 15 18 6 9 -9 9
-15 0 -24z m7718 16 c0 -8 -4 -12 -10 -9 -5 3 -10 10 -10 16 0 5 5 9 10 9 6 0
10 -7 10 -16z m-3912 -12 c2 -7 -6 -12 -17 -12 -21 0 -27 11 -14 24 9 9 26 2
31 -12z m-5708 -17 c0 -8 -4 -15 -9 -15 -13 0 -22 16 -14 24 11 11 23 6 23 -9z
m15410 0 c0 -8 -7 -15 -15 -15 -16 0 -20 12 -8 23 11 12 23 8 23 -8z m-10570
-10 c18 -21 5 -47 -22 -43 -26 3 -37 36 -16 49 18 12 24 11 38 -6z m7822 -12
c27 -24 21 -84 -9 -98 -13 -5 -23 -13 -23 -17 0 -15 -37 -8 -56 10 -43 39 -46
48 -29 82 25 49 77 60 117 23z m-5172 2 c0 -8 -7 -15 -15 -15 -8 0 -15 7 -15
15 0 8 7 15 15 15 8 0 15 -7 15 -15z m2293 0 c1 -5 -6 -11 -15 -13 -11 -2 -18
3 -18 13 0 17 30 18 33 0z m5297 0 c0 -8 -4 -15 -9 -15 -13 0 -22 16 -14 24
11 11 23 6 23 -9z m-3650 -3 c0 -13 -12 -22 -22 -16 -10 6 -1 24 13 24 5 0 9
-4 9 -8z m5213 -6 c9 -22 -19 -42 -37 -26 -19 15 -10 40 14 40 10 0 20 -6 23
-14z m-1272 -19 c-13 -13 -26 -3 -16 12 3 6 11 8 17 5 6 -4 6 -10 -1 -17z
m-13853 1 c21 -21 14 -57 -13 -70 -22 -10 -29 -9 -47 10 -19 18 -20 25 -10 47
13 27 49 34 70 13z m1682 -8 c0 -5 -4 -10 -10 -10 -5 0 -10 5 -10 10 0 6 5 10
10 10 6 0 10 -4 10 -10z m5480 0 c0 -5 -4 -10 -10 -10 -5 0 -10 5 -10 10 0 6
5 10 10 10 6 0 10 -4 10 -10z m1795 1 c7 -12 -12 -24 -25 -16 -11 7 -4 25 10
25 5 0 11 -4 15 -9z m3506 -14 c-1 -12 -15 -9 -19 4 -3 6 1 10 8 8 6 -3 11 -8
11 -12z m-5353 -9 c28 -28 1 -75 -38 -63 -14 4 -20 15 -20 35 0 37 33 53 58
28z m-6028 -23 c0 -8 -4 -15 -10 -15 -5 0 -10 7 -10 15 0 8 5 15 10 15 6 0 10
-7 10 -15z m1350 -6 c0 -12 -29 -24 -37 -16 -3 4 -3 13 0 21 6 16 37 11 37 -5z
m7522 6 c0 -5 -5 -11 -11 -13 -6 -2 -11 4 -11 13 0 9 5 15 11 13 6 -2 11 -8
11 -13z m2766 -7 c-6 -18 -28 -21 -28 -4 0 9 7 16 16 16 9 0 14 -5 12 -12z
m-1118 -12 c0 -21 -21 -31 -31 -15 -14 22 -11 29 11 29 11 0 20 -6 20 -14z
m-5640 -6 c0 -5 -4 -10 -10 -10 -5 0 -10 5 -10 10 0 6 5 10 10 10 6 0 10 -4
10 -10z m9570 -10 c0 -5 -4 -10 -10 -10 -5 0 -10 5 -10 10 0 6 5 10 10 10 6 0
10 -4 10 -10z m-18183 -16 c8 -21 -19 -46 -40 -38 -17 6 -23 35 -10 47 12 13
44 7 50 -9z m11283 0 c0 -9 -5 -14 -12 -12 -18 6 -21 28 -4 28 9 0 16 -7 16
-16z m5145 -4 c17 -19 16 -48 -3 -78 -14 -21 -73 -18 -88 3 -46 63 39 133 91
75z m-14575 -10 c0 -5 -2 -10 -4 -10 -3 0 -8 5 -11 10 -3 6 -1 10 4 10 6 0 11
-4 11 -10z m16620 -21 c0 -12 -7 -19 -20 -19 -22 0 -29 35 -7 43 18 6 27 -2
27 -24z m-4000 -4 c0 -8 -7 -15 -15 -15 -8 0 -15 7 -15 15 0 8 7 15 15 15 8 0
15 -7 15 -15z m-9740 -15 c0 -5 -4 -10 -10 -10 -5 0 -10 5 -10 10 0 6 5 10 10
10 6 0 10 -4 10 -10z m-280 -26 c11 -12 10 -18 -3 -32 -16 -15 -18 -15 -34 0
-13 14 -14 20 -3 32 7 9 16 16 20 16 4 0 13 -7 20 -16z m10893 2 c8 -20 -20
-43 -35 -28 -14 14 -3 42 16 42 7 0 16 -6 19 -14z m-7015 -14 c2 -7 -3 -12
-12 -12 -9 0 -16 7 -16 16 0 17 22 14 28 -4z m8282 8 c0 -5 -7 -10 -15 -10 -8
0 -15 5 -15 10 0 6 7 10 15 10 8 0 15 -4 15 -10z m-14380 -25 c0 -8 -6 -15
-14 -15 -17 0 -28 14 -19 24 12 12 33 6 33 -9z m5280 -20 c0 -8 -4 -15 -9 -15
-13 0 -22 16 -14 24 11 11 23 6 23 -9z m6740 -5 c0 -11 -6 -20 -14 -20 -18 0
-29 16 -21 30 11 18 35 11 35 -10z m3594 4 c9 -8 16 -19 16 -24 0 -11 -29 -40
-40 -40 -10 0 -40 28 -40 37 0 10 32 43 41 43 4 0 15 -7 23 -16z m-2646 -10
c29 -20 29 -65 1 -82 -33 -21 -79 2 -79 39 0 24 29 59 50 59 3 0 16 -7 28 -16z
m-4618 -25 c0 -23 -28 -26 -37 -3 -6 16 15 37 29 28 4 -3 8 -14 8 -25z m-9190
11 c0 -5 -4 -10 -10 -10 -5 0 -10 5 -10 10 0 6 5 10 10 10 6 0 10 -4 10 -10z
m3320 -40 c0 -5 -4 -10 -10 -10 -5 0 -10 5 -10 10 0 6 5 10 10 10 6 0 10 -4
10 -10z m12572 -17 c10 -9 18 -30 18 -49 0 -24 4 -32 14 -28 22 9 48 -24 36
-46 -6 -10 -14 -21 -18 -24 -13 -8 -52 23 -52 40 0 12 -3 12 -20 2 -27 -17
-71 6 -84 44 -21 60 57 105 106 61z m-5572 -11 c0 -13 -12 -22 -22 -16 -10 6
-1 24 13 24 5 0 9 -4 9 -8z m-3296 -21 c3 -5 -1 -14 -8 -20 -16 -13 -32 2 -21
19 8 12 22 13 29 1z m-874 -26 c0 -8 -7 -15 -15 -15 -8 0 -15 7 -15 15 0 8 7
15 15 15 8 0 15 -7 15 -15z m1665 5 c3 -5 1 -10 -4 -10 -6 0 -11 5 -11 10 0 6
2 10 4 10 3 0 8 -4 11 -10z m2993 -1 c-2 -6 -8 -10 -13 -10 -5 0 -11 4 -13 10
-2 6 4 11 13 11 9 0 15 -5 13 -11z m-10623 -40 c0 -17 -6 -24 -20 -24 -23 0
-33 34 -13 46 20 13 33 5 33 -22z m3525 21 c0 -5 -4 -10 -10 -10 -5 0 -10 5
-10 10 0 6 5 10 10 10 6 0 10 -4 10 -10z m375 -70 c-5 -8 -11 -8 -17 -2 -6 6
-7 16 -3 22 5 8 11 8 17 2 6 -6 7 -16 3 -22z m-4185 5 c0 -8 -4 -15 -10 -15
-5 0 -10 7 -10 15 0 8 5 15 10 15 6 0 10 -7 10 -15z m540 -31 c0 -8 -7 -14
-15 -14 -15 0 -21 21 -9 33 10 9 24 -2 24 -19z m4020 16 c0 -5 -4 -10 -9 -10
-6 0 -13 5 -16 10 -3 6 1 10 9 10 9 0 16 -4 16 -10z m1055 -10 c3 -5 1 -10 -4
-10 -6 0 -11 5 -11 10 0 6 2 10 4 10 3 0 8 -4 11 -10z m-6255 -30 c0 -5 -7
-10 -16 -10 -8 0 -12 5 -9 10 3 6 10 10 16 10 5 0 9 -4 9 -10z m17820 -34
c-13 -13 -35 7 -25 24 5 8 11 8 21 -1 10 -8 12 -15 4 -23z m-10889 3 c45 -45
-4 -130 -66 -115 -29 7 -56 56 -47 88 12 46 78 62 113 27z m1939 -15 c0 -8 -7
-14 -15 -14 -15 0 -21 21 -9 33 10 9 24 -2 24 -19z m1500 -9 c0 -8 -7 -15 -15
-15 -8 0 -15 7 -15 15 0 8 7 15 15 15 8 0 15 -7 15 -15z m-8930 -5 c0 -5 -7
-10 -15 -10 -8 0 -15 5 -15 10 0 6 7 10 15 10 8 0 15 -4 15 -10z m11010 -5 c0
-8 -4 -15 -10 -15 -5 0 -10 7 -10 15 0 8 5 15 10 15 6 0 10 -7 10 -15z m-6700
-16 c0 -25 -33 -22 -38 4 -2 12 3 17 17 17 15 0 21 -6 21 -21z m3440 11 c0 -5
-4 -10 -10 -10 -5 0 -10 5 -10 10 0 6 5 10 10 10 6 0 10 -4 10 -10z m885 -19
c7 -12 -12 -24 -25 -16 -11 7 -4 25 10 25 5 0 11 -4 15 -9z m7507 -41 c2 -25
-1 -35 -13 -38 -23 -4 -34 30 -14 44 11 9 13 13 4 16 -7 2 -9 9 -5 17 12 19
25 1 28 -39z m-12938 -1 c-8 -14 -34 -11 -34 4 0 8 3 17 7 20 9 9 34 -13 27
-24z m-4653 -2 c-13 -13 -26 -3 -16 12 3 6 11 8 17 5 6 -4 6 -10 -1 -17z
m3744 -3 c14 -15 25 -31 25 -35 0 -21 -25 -58 -46 -70 -21 -11 -28 -10 -52 8
-56 41 -34 116 36 122 7 0 24 -11 37 -25z m14393 15 c-2 -6 -8 -10 -13 -10 -5
0 -11 4 -13 10 -2 6 4 11 13 11 9 0 15 -5 13 -11z m-17550 -11 c14 -14 -2 -48
-24 -48 -20 0 -29 27 -14 45 15 18 22 19 38 3z m752 3 c0 -6 -4 -13 -10 -16
-5 -3 -10 1 -10 9 0 9 5 16 10 16 6 0 10 -4 10 -9z m11210 -11 c25 -25 25 -31
-1 -64 -23 -30 -45 -33 -77 -10 -26 18 -28 41 -6 72 19 28 57 29 84 2z m-3449
-13 c-13 -13 -26 -3 -16 12 3 6 11 8 17 5 6 -4 6 -10 -1 -17z m8919 -22 c0 -8
-7 -15 -15 -15 -16 0 -20 12 -8 23 11 12 23 8 23 -8z m-13970 -13 c0 -13 -12
-22 -22 -16 -10 6 -1 24 13 24 5 0 9 -4 9 -8z m-980 -10 c0 -13 -12 -22 -22
-16 -10 6 -1 24 13 24 5 0 9 -4 9 -8z m1230 -8 c0 -9 -7 -14 -17 -12 -25 5
-28 28 -4 28 12 0 21 -6 21 -16z m11308 -18 c5 -23 -23 -47 -44 -39 -15 5 -19
44 -7 57 13 13 48 1 51 -18z m-12878 4 c0 -5 -7 -10 -15 -10 -8 0 -15 5 -15
10 0 6 7 10 15 10 8 0 15 -4 15 -10z m395 -20 c0 -16 -6 -26 -19 -28 -25 -5
-39 12 -31 38 10 31 50 24 50 -10z m-3817 3 c-4 -22 -22 -20 -26 1 -2 10 3 16
13 16 10 0 15 -7 13 -17z m14754 -25 c-15 -15 -26 -4 -18 18 5 13 9 15 18 6 9
-9 9 -15 0 -24z m-7327 -8 c4 -6 -4 -22 -18 -36 -30 -30 -45 -16 -21 21 18 27
29 31 39 15z m6581 -21 c10 -17 -13 -36 -27 -22 -12 12 -4 33 11 33 5 0 12 -5
16 -11z m1424 1 c0 -5 -4 -10 -10 -10 -5 0 -10 5 -10 10 0 6 5 10 10 10 6 0
10 -4 10 -10z m-3106 -22 c15 -25 -3 -52 -37 -56 -21 -3 -28 2 -33 22 -12 49
43 76 70 34z m-3764 -18 c0 -5 -2 -10 -4 -10 -3 0 -8 5 -11 10 -3 6 -1 10 4
10 6 0 11 -4 11 -10z m-8200 -26 c0 -8 -9 -14 -20 -14 -22 0 -26 10 -8 28 13
13 28 7 28 -14z m6050 11 c0 -8 -7 -15 -15 -15 -8 0 -15 7 -15 15 0 8 7 15 15
15 8 0 15 -7 15 -15z m3210 -31 c0 -8 -4 -12 -10 -9 -5 3 -10 10 -10 16 0 5 5
9 10 9 6 0 10 -7 10 -16z m6070 -5 c0 -5 -7 -9 -15 -9 -15 0 -20 12 -9 23 8 8
24 -1 24 -14z m-8928 -4 c0 -5 -5 -11 -11 -13 -6 -2 -11 4 -11 13 0 9 5 15 11
13 6 -2 11 -8 11 -13z m8708 5 c0 -5 -4 -10 -10 -10 -5 0 -10 5 -10 10 0 6 5
10 10 10 6 0 10 -4 10 -10z m-3050 -20 c0 -5 -4 -10 -10 -10 -5 0 -10 5 -10
10 0 6 5 10 10 10 6 0 10 -4 10 -10z m-10833 -16 c8 -21 -13 -42 -28 -27 -13
13 -5 43 11 43 6 0 13 -7 17 -16z m2088 -14 c-5 -8 -11 -8 -17 -2 -6 6 -7 16
-3 22 5 8 11 8 17 2 6 -6 7 -16 3 -22z m-2169 9 c10 -17 -13 -36 -27 -22 -12
12 -4 33 11 33 5 0 12 -5 16 -11z m7261 -15 c-9 -9 -28 6 -21 18 4 6 10 6 17
-1 6 -6 8 -13 4 -17z m1539 -1 c-10 -10 -19 5 -10 18 6 11 8 11 12 0 2 -7 1
-15 -2 -18z m-9031 -3 c13 -20 -6 -50 -31 -50 -26 0 -40 20 -30 45 6 17 51 20
61 5z m6225 0 c0 -5 -7 -10 -15 -10 -8 0 -15 5 -15 10 0 6 7 10 15 10 8 0 15
-4 15 -10z m6235 4 c21 -8 35 -45 28 -72 -7 -27 -47 -44 -77 -33 -41 16 -49
71 -14 95 24 17 38 19 63 10z m-8480 -44 c-5 -8 -11 -8 -17 -2 -6 6 -7 16 -3
22 5 8 11 8 17 2 6 -6 7 -16 3 -22z m1155 15 c0 -8 -4 -15 -10 -15 -5 0 -10 7
-10 15 0 8 5 15 10 15 6 0 10 -7 10 -15z m3210 -16 c0 -5 -4 -9 -10 -9 -5 0
-10 7 -10 16 0 8 5 12 10 9 6 -3 10 -10 10 -16z m960 6 c0 -8 -7 -15 -15 -15
-16 0 -20 12 -8 23 11 12 23 8 23 -8z m5390 0 c0 -8 -4 -15 -10 -15 -5 0 -10
7 -10 15 0 8 5 15 10 15 6 0 10 -7 10 -15z m-6266 -16 c-3 -5 -10 -7 -15 -3
-5 3 -7 10 -3 15 3 5 10 7 15 3 5 -3 7 -10 3 -15z m2416 11 c0 -5 -4 -10 -10
-10 -5 0 -10 5 -10 10 0 6 5 10 10 10 6 0 10 -4 10 -10z m-11370 -18 c0 -13
-12 -22 -22 -16 -10 6 -1 24 13 24 5 0 9 -4 9 -8z m16800 -7 c0 -9 -7 -18 -16
-22 -18 -7 -39 11 -30 26 11 17 46 13 46 -4z m-7842 -17 c-6 -18 -28 -21 -28
-4 0 9 7 16 16 16 9 0 14 -5 12 -12z m8362 -3 c0 -8 -4 -15 -10 -15 -5 0 -10
7 -10 15 0 8 5 15 10 15 6 0 10 -7 10 -15z m-8960 -10 c15 -18 5 -35 -21 -35
-12 0 -19 7 -19 18 0 33 20 42 40 17z m-3997 -36 c14 -23 1 -67 -23 -74 -25
-8 -57 9 -65 36 -15 46 62 79 88 38z m-3493 -9 c0 -5 -4 -10 -10 -10 -5 0 -10
5 -10 10 0 6 5 10 10 10 6 0 10 -4 10 -10z m6618 -2 c-6 -18 -28 -21 -28 -4 0
9 7 16 16 16 9 0 14 -5 12 -12z m-2988 -28 c0 -5 -4 -10 -10 -10 -5 0 -10 5
-10 10 0 6 5 10 10 10 6 0 10 -4 10 -10z m5470 0 c0 -5 -4 -10 -10 -10 -5 0
-10 5 -10 10 0 6 5 10 10 10 6 0 10 -4 10 -10z m1420 -6 c0 -8 -4 -12 -10 -9
-5 3 -10 10 -10 16 0 5 5 9 10 9 6 0 10 -7 10 -16z m-2120 -4 c0 -5 -4 -10
-10 -10 -5 0 -10 5 -10 10 0 6 5 10 10 10 6 0 10 -4 10 -10z m-1906 -31 c-3
-5 -10 -7 -15 -3 -5 3 -7 10 -3 15 3 5 10 7 15 3 5 -3 7 -10 3 -15z m2681 2
c7 -12 -12 -24 -25 -16 -11 7 -4 25 10 25 5 0 11 -4 15 -9z m-8335 -76 c0 -8
-4 -15 -9 -15 -13 0 -22 16 -14 24 11 11 23 6 23 -9z m4208 -23 c3 -17 -2 -22
-18 -22 -25 0 -38 29 -19 41 20 13 34 6 37 -19z m8407 -7 c0 -21 -31 -33 -46
-18 -5 5 -7 17 -3 27 9 24 49 17 49 -9z m3315 -25 c0 -5 -4 -10 -10 -10 -5 0
-10 5 -10 10 0 6 5 10 10 10 6 0 10 -4 10 -10z m350 -16 c0 -8 -5 -12 -10 -9
-6 4 -8 11 -5 16 9 14 15 11 15 -7z m-9034 -41 c-10 -10 -19 5 -10 18 6 11 8
11 12 0 2 -7 1 -15 -2 -18z m-3896 -13 c0 -5 -4 -10 -10 -10 -5 0 -10 5 -10
10 0 6 5 10 10 10 6 0 10 -4 10 -10z m4415 -10 c0 -22 -29 -18 -33 3 -3 14 1
18 15 15 10 -2 18 -10 18 -18z m5765 5 c0 -8 -4 -15 -10 -15 -5 0 -10 7 -10
15 0 8 5 15 10 15 6 0 10 -7 10 -15z m-5638 -20 c0 -5 -5 -11 -11 -13 -6 -2
-11 4 -11 13 0 9 5 15 11 13 6 -2 11 -8 11 -13z m-764 -11 c42 -29 16 -104
-37 -104 -23 0 -51 31 -51 57 0 25 32 63 53 63 7 0 23 -7 35 -16z m-7518 -19
c0 -8 -4 -15 -10 -15 -5 0 -10 7 -10 15 0 8 5 15 10 15 6 0 10 -7 10 -15z
m3420 0 c0 -8 -4 -15 -10 -15 -5 0 -10 7 -10 15 0 8 5 15 10 15 6 0 10 -7 10
-15z m570 -15 c0 -5 -4 -10 -10 -10 -5 0 -10 5 -10 10 0 6 5 10 10 10 6 0 10
-4 10 -10z m-5220 -30 c0 -5 -4 -10 -10 -10 -5 0 -10 5 -10 10 0 6 5 10 10 10
6 0 10 -4 10 -10z m3528 -18 c4 -28 -24 -41 -44 -20 -20 20 -7 50 20 46 13 -2
22 -12 24 -26z m2970 5 c2 -11 -3 -17 -17 -17 -23 0 -35 15 -26 31 10 15 39 6
43 -14z m7970 12 c-2 -6 -8 -10 -13 -10 -5 0 -11 4 -13 10 -2 6 4 11 13 11 9
0 15 -5 13 -11z m-3798 -20 c0 -5 -7 -9 -15 -9 -15 0 -20 12 -9 23 8 8 24 -1
24 -14z m-2350 -29 c15 -28 -4 -60 -36 -60 -31 0 -54 41 -34 65 18 21 57 19
70 -5z m5600 -30 c24 -24 25 -43 4 -64 -20 -21 -43 -20 -66 1 -24 21 -23 41 4
64 27 24 33 24 58 -1z m-8540 -5 c0 -8 -4 -15 -9 -15 -13 0 -22 16 -14 24 11
11 23 6 23 -9z m4195 5 c3 -6 -1 -13 -10 -16 -19 -8 -30 0 -20 15 8 14 22 14
30 1z m4757 -4 c51 -38 18 -126 -47 -126 -38 0 -75 37 -75 74 0 53 78 86 122
52z m-14552 -15 c7 -15 6 -23 -6 -35 -18 -18 -17 -18 -38 -10 -16 6 -22 45 -9
57 13 14 43 7 53 -12z m7980 -11 c0 -5 -4 -10 -10 -10 -5 0 -10 5 -10 10 0 6
5 10 10 10 6 0 10 -4 10 -10z m-5110 -30 c0 -5 -4 -10 -10 -10 -5 0 -10 5 -10
10 0 6 5 10 10 10 6 0 10 -4 10 -10z m930 -10 c0 -5 -4 -10 -9 -10 -6 0 -13 5
-16 10 -3 6 1 10 9 10 9 0 16 -4 16 -10z m514 -11 c-3 -5 -10 -7 -15 -3 -5 3
-7 10 -3 15 3 5 10 7 15 3 5 -3 7 -10 3 -15z m12846 -1 c0 -23 -23 -48 -44
-48 -39 0 -45 54 -8 62 23 5 52 -2 52 -14z m-7575 -18 c0 -18 -6 -26 -21 -28
-26 -4 -40 24 -23 45 18 21 44 11 44 -17z m-2045 10 c0 -5 -4 -10 -10 -10 -5
0 -10 5 -10 10 0 6 5 10 10 10 6 0 10 -4 10 -10z m9530 -22 c13 -25 13 -31 0
-55 -20 -36 -61 -42 -89 -14 -12 12 -21 30 -21 41 0 11 9 29 21 41 28 28 69
22 89 -13z m-8490 7 c0 -8 -4 -15 -10 -15 -5 0 -10 7 -10 15 0 8 5 15 10 15 6
0 10 -7 10 -15z m2460 -25 c0 -5 -4 -10 -10 -10 -5 0 -10 5 -10 10 0 6 5 10
10 10 6 0 10 -4 10 -10z m718 -2 c17 -17 15 -55 -4 -62 -41 -16 -77 29 -47 59
18 18 35 19 51 3z m-1994 -19 c-3 -5 -10 -7 -15 -3 -5 3 -7 10 -3 15 3 5 10 7
15 3 5 -3 7 -10 3 -15z m-6874 -38 c0 -6 -4 -13 -10 -16 -5 -3 -10 1 -10 9 0
9 5 16 10 16 6 0 10 -4 10 -9z m14920 -11 c0 -5 -7 -10 -15 -10 -8 0 -15 5
-15 10 0 6 7 10 15 10 8 0 15 -4 15 -10z m-10870 -16 c0 -17 -22 -14 -28 4 -2
7 3 12 12 12 9 0 16 -7 16 -16z m2670 6 c0 -5 -5 -10 -11 -10 -5 0 -7 5 -4 10
3 6 8 10 11 10 2 0 4 -4 4 -10z m-780 -28 c0 -13 -12 -22 -22 -16 -10 6 -1 24
13 24 5 0 9 -4 9 -8z m5230 -17 c0 -8 -6 -15 -14 -15 -17 0 -28 14 -19 24 12
12 33 6 33 -9z m-435 -5 c-3 -5 -10 -10 -16 -10 -5 0 -9 5 -9 10 0 6 7 10 16
10 8 0 12 -4 9 -10z m-4815 -45 c0 -8 -4 -15 -10 -15 -5 0 -10 7 -10 15 0 8 5
15 10 15 6 0 10 -7 10 -15z m-9075 -26 c0 -7 -8 -15 -17 -17 -18 -3 -25 18
-11 32 10 10 28 1 28 -15z m11727 -4 c0 -5 -5 -11 -11 -13 -6 -2 -11 4 -11 13
0 9 5 15 11 13 6 -2 11 -8 11 -13z m46 -28 c4 -20 -25 -34 -40 -19 -15 15 -1
44 19 40 10 -2 19 -11 21 -21z m-11553 -22 c0 -27 -3 -30 -30 -30 -21 0 -31 5
-33 18 -5 25 17 49 42 45 16 -2 21 -10 21 -33z m10973 12 c4 -20 -25 -34 -40
-19 -15 15 -1 44 19 40 10 -2 19 -11 21 -21z m-2328 3 c0 -5 -4 -10 -10 -10
-5 0 -10 5 -10 10 0 6 5 10 10 10 6 0 10 -4 10 -10z m-1990 -40 c0 -5 -4 -10
-10 -10 -5 0 -10 5 -10 10 0 6 5 10 10 10 6 0 10 -4 10 -10z m-661 -14 c17
-20 2 -48 -23 -44 -24 3 -34 37 -14 49 18 12 24 11 37 -5z m8666 -7 c0 -7 -8
-15 -17 -17 -18 -3 -25 18 -11 32 10 10 28 1 28 -15z m2056 5 c17 -21 0 -49
-31 -49 -31 0 -48 28 -31 49 8 9 21 16 31 16 10 0 23 -7 31 -16z m-9641 -4 c0
-5 -7 -10 -15 -10 -8 0 -15 5 -15 10 0 6 7 10 15 10 8 0 15 -4 15 -10z m-1920
-15 c0 -8 -7 -15 -15 -15 -8 0 -15 7 -15 15 0 8 7 15 15 15 8 0 15 -7 15 -15z
m7580 0 c0 -8 -7 -15 -15 -15 -8 0 -15 7 -15 15 0 8 7 15 15 15 8 0 15 -7 15
-15z m-8810 -20 c0 -8 -4 -15 -9 -15 -13 0 -22 16 -14 24 11 11 23 6 23 -9z
m6190 -5 c0 -5 -4 -10 -10 -10 -5 0 -10 5 -10 10 0 6 5 10 10 10 6 0 10 -4 10
-10z m-6850 -15 c0 -8 -4 -15 -10 -15 -5 0 -10 7 -10 15 0 8 5 15 10 15 6 0
10 -7 10 -15z m6356 -30 c-5 -14 -9 -15 -21 -5 -12 10 -13 16 -4 27 15 18 34
1 25 -22z m-4876 15 c0 -5 -4 -10 -10 -10 -5 0 -10 5 -10 10 0 6 5 10 10 10 6
0 10 -4 10 -10z m5910 0 c0 -5 -4 -10 -10 -10 -5 0 -10 5 -10 10 0 6 5 10 10
10 6 0 10 -4 10 -10z m2220 -5 c0 -8 -4 -15 -10 -15 -5 0 -10 7 -10 15 0 8 5
15 10 15 6 0 10 -7 10 -15z m-8265 -25 c-5 -8 -11 -8 -17 -2 -6 6 -7 16 -3 22
5 8 11 8 17 2 6 -6 7 -16 3 -22z m-4530 -40 c-5 -8 -11 -8 -17 -2 -6 6 -7 16
-3 22 5 8 11 8 17 2 6 -6 7 -16 3 -22z m1021 3 c-10 -10 -19 5 -10 18 6 11 8
11 12 0 2 -7 1 -15 -2 -18z m1068 5 c20 -28 20 -43 0 -62 -21 -22 -60 -20 -76
3 -8 11 -23 19 -33 18 -14 -1 -21 5 -23 21 -3 22 3 26 45 23 11 -1 24 3 28 8
11 18 43 12 59 -11z m-1489 2 c3 -5 1 -10 -4 -10 -6 0 -11 5 -11 10 0 6 2 10
4 10 3 0 8 -4 11 -10z m9083 -21 c-2 -6 -8 -10 -13 -10 -5 0 -11 4 -13 10 -2
6 4 11 13 11 9 0 15 -5 13 -11z m1330 -7 c3 -11 -46 -37 -55 -28 -2 2 4 14 14
25 18 22 34 23 41 3z m-4913 -32 c-5 -8 -11 -8 -17 -2 -6 6 -7 16 -3 22 5 8
11 8 17 2 6 -6 7 -16 3 -22z m1418 12 c36 -39 -14 -92 -54 -56 -23 21 -24 37
-3 58 20 21 37 20 57 -2z m3737 -27 c13 -16 6 -35 -15 -35 -18 0 -28 17 -21
35 7 19 20 19 36 0z m3810 5 c0 -5 -4 -10 -10 -10 -5 0 -10 5 -10 10 0 6 5 10
10 10 6 0 10 -4 10 -10z m-6133 -16 c3 -8 -2 -23 -11 -32 -16 -16 -18 -16 -31
1 -7 11 -11 25 -8 33 7 19 42 18 50 -2z m-5067 -4 c0 -5 -4 -10 -10 -10 -5 0
-10 5 -10 10 0 6 5 10 10 10 6 0 10 -4 10 -10z m12033 -48 c9 -9 17 -29 17
-47 0 -26 -6 -35 -34 -50 -32 -17 -36 -18 -60 -2 -47 31 -43 98 7 116 25 9 44
5 70 -17z m-5043 -8 c0 -9 -5 -14 -12 -12 -18 6 -21 28 -4 28 9 0 16 -7 16
-16z m2791 -27 c-13 -13 -26 -3 -16 12 3 6 11 8 17 5 6 -4 6 -10 -1 -17z m429
7 c0 -8 -5 -12 -10 -9 -6 4 -8 11 -5 16 9 14 15 11 15 -7z m-2495 -33 c7 -12
-12 -24 -25 -16 -11 7 -4 25 10 25 5 0 11 -4 15 -9z m-6181 -32 c-3 -5 -10 -7
-15 -3 -5 3 -7 10 -3 15 3 5 10 7 15 3 5 -3 7 -10 3 -15z m-5476 -32 c2 -10
-3 -17 -12 -17 -10 0 -16 9 -16 21 0 24 23 21 28 -4z m17843 2 c9 -18 7 -25
-9 -41 -35 -35 -85 -1 -62 43 14 26 56 25 71 -2z m-12701 -13 c0 -21 -21 -31
-30 -15 -5 7 -6 17 -4 21 9 14 34 9 34 -6z m4840 -11 c0 -8 -4 -15 -9 -15 -13
0 -22 16 -14 24 11 11 23 6 23 -9z m-2230 -46 c0 -5 -7 -9 -15 -9 -15 0 -20
12 -9 23 8 8 24 -1 24 -14z m4710 1 c0 -5 -4 -10 -10 -10 -5 0 -10 5 -10 10 0
6 5 10 10 10 6 0 10 -4 10 -10z m-10460 -36 c0 -8 -7 -14 -15 -14 -15 0 -21
21 -9 33 10 9 24 -2 24 -19z m4125 16 c-3 -5 -10 -10 -16 -10 -5 0 -9 5 -9 10
0 6 7 10 16 10 8 0 12 -4 9 -10z m-1875 -14 c0 -8 -5 -18 -11 -22 -14 -8 -33
11 -25 25 10 16 36 13 36 -3z m2560 4 c0 -5 -4 -10 -10 -10 -5 0 -10 5 -10 10
0 6 5 10 10 10 6 0 10 -4 10 -10z m3720 -16 c0 -8 -5 -12 -10 -9 -6 4 -8 11
-5 16 9 14 15 11 15 -7z m-2186 -36 c8 -14 7 -21 -6 -34 -30 -30 -75 9 -48 42
16 18 39 15 54 -8z m-7004 -13 c0 -8 -7 -15 -15 -15 -8 0 -15 7 -15 15 0 8 7
15 15 15 8 0 15 -7 15 -15z m5340 5 c0 -5 -4 -10 -10 -10 -5 0 -10 5 -10 10 0
6 5 10 10 10 6 0 10 -4 10 -10z m-1030 -15 c0 -8 -7 -15 -15 -15 -16 0 -20 12
-8 23 11 12 23 8 23 -8z m-5196 -11 c8 -21 -1 -34 -25 -34 -12 0 -19 7 -19 18
0 34 33 45 44 16z m6006 6 c0 -5 -5 -10 -11 -10 -5 0 -7 5 -4 10 3 6 8 10 11
10 2 0 4 -4 4 -10z m2716 -1 c10 -17 -13 -36 -27 -22 -12 12 -4 33 11 33 5 0
12 -5 16 -11z m5931 -15 c8 -22 -18 -37 -36 -20 -7 8 -10 19 -7 25 10 16 36
13 43 -5z m-10839 -22 c4 -28 -24 -41 -44 -20 -20 20 -7 50 20 46 13 -2 22
-12 24 -26z m11900 17 c-2 -6 -8 -10 -13 -10 -5 0 -11 4 -13 10 -2 6 4 11 13
11 9 0 15 -5 13 -11z m-12398 -19 c0 -5 -4 -10 -10 -10 -5 0 -10 5 -10 10 0 6
5 10 10 10 6 0 10 -4 10 -10z m5240 0 c0 -5 -7 -10 -15 -10 -8 0 -15 5 -15 10
0 6 7 10 15 10 8 0 15 -4 15 -10z m-2938 -42 c-9 -9 -15 -9 -24 0 -10 10 -10
15 2 22 9 6 19 5 24 0 7 -7 6 -14 -2 -22z m1378 12 c0 -12 -28 -25 -36 -17 -9
9 6 27 22 27 8 0 14 -5 14 -10z m10620 -5 c0 -8 -7 -15 -15 -15 -8 0 -15 7
-15 15 0 8 7 15 15 15 8 0 15 -7 15 -15z m-1910 -5 c0 -5 -4 -10 -10 -10 -5 0
-10 5 -10 10 0 6 5 10 10 10 6 0 10 -4 10 -10z m-5790 -15 c0 -8 -4 -15 -9
-15 -13 0 -22 16 -14 24 11 11 23 6 23 -9z m-10390 -10 c0 -8 -4 -15 -10 -15
-5 0 -10 7 -10 15 0 8 5 15 10 15 6 0 10 -7 10 -15z m1547 -1 c3 -8 -2 -23
-11 -32 -15 -15 -17 -15 -32 0 -21 21 -11 48 16 48 11 0 23 -7 27 -16z m3183
-34 c0 -24 -26 -38 -42 -22 -16 16 -2 42 22 42 13 0 20 -7 20 -20z m-631 -34
c9 -11 10 -20 1 -36 -13 -24 -38 -23 -53 1 -23 37 25 68 52 35z m3621 4 c0 -5
-7 -10 -15 -10 -8 0 -15 5 -15 10 0 6 7 10 15 10 8 0 15 -4 15 -10z m1890 -10
c0 -5 -7 -10 -16 -10 -8 0 -12 5 -9 10 3 6 10 10 16 10 5 0 9 -4 9 -10z
m-5630 -10 c0 -5 -4 -10 -10 -10 -5 0 -10 5 -10 10 0 6 5 10 10 10 6 0 10 -4
10 -10z m2734 -6 c7 -19 -10 -44 -30 -44 -15 0 -28 35 -19 50 10 16 42 12 49
-6z m-3864 -24 c0 -5 -4 -10 -10 -10 -5 0 -10 5 -10 10 0 6 5 10 10 10 6 0 10
-4 10 -10z m-1992 -17 c-2 -10 -10 -18 -18 -18 -8 0 -16 8 -18 18 -2 12 3 17
18 17 15 0 20 -5 18 -17z m3317 -3 c0 -7 -6 -15 -12 -17 -8 -3 -13 4 -13 17 0
13 5 20 13 18 6 -3 12 -11 12 -18z m3559 -1 c14 -11 26 -29 26 -40 0 -24 -43
-69 -65 -69 -9 0 -27 11 -40 25 -14 13 -25 31 -25 40 0 20 44 65 63 65 8 0 26
-9 41 -21z m-6764 -43 c6 -8 10 -25 8 -38 -2 -18 -9 -23 -33 -23 -26 0 -30 4
-33 32 -3 30 2 35 39 42 4 0 12 -6 19 -13z m10778 -12 c3 -22 -21 -39 -39 -28
-11 6 -12 38 -2 48 13 13 38 1 41 -20z m-3618 -7 c0 -8 -3 -17 -7 -20 -9 -9
-34 13 -27 24 8 14 34 11 34 -4z m7233 -18 c-17 -17 -37 -1 -22 17 8 10 15 12
23 4 7 -7 7 -13 -1 -21z m-7323 1 c0 -5 -4 -10 -10 -10 -5 0 -10 5 -10 10 0 6
5 10 10 10 6 0 10 -4 10 -10z m3087 -6 c8 -22 -10 -49 -32 -49 -10 0 -22 7
-28 16 -15 24 -1 49 28 49 15 0 28 -7 32 -16z m1353 0 c0 -8 -4 -12 -10 -9 -5
3 -10 10 -10 16 0 5 5 9 10 9 6 0 10 -7 10 -16z m3286 -29 c7 -18 -13 -45 -33
-45 -17 0 -27 24 -19 45 7 20 45 19 52 0z m-7246 -5 c0 -5 -4 -10 -10 -10 -5
0 -10 5 -10 10 0 6 5 10 10 10 6 0 10 -4 10 -10z m795 -50 c-5 -8 -11 -8 -17
-2 -6 6 -7 16 -3 22 5 8 11 8 17 2 6 -6 7 -16 3 -22z m-8412 -16 c12 -12 -6
-34 -29 -34 -23 0 -32 18 -17 33 8 9 38 9 46 1z m13567 -4 c0 -5 -4 -10 -10
-10 -5 0 -10 5 -10 10 0 6 5 10 10 10 6 0 10 -4 10 -10z m370 0 c0 -5 -4 -10
-10 -10 -5 0 -10 5 -10 10 0 6 5 10 10 10 6 0 10 -4 10 -10z m-3470 -10 c0 -5
-4 -10 -10 -10 -5 0 -10 5 -10 10 0 6 5 10 10 10 6 0 10 -4 10 -10z m-870 -20
c0 -5 -4 -10 -10 -10 -5 0 -10 5 -10 10 0 6 5 10 10 10 6 0 10 -4 10 -10z
m-9840 -20 c0 -21 -24 -28 -35 -10 -8 14 3 30 21 30 8 0 14 -9 14 -20z m5998
-33 c4 -20 -25 -34 -40 -19 -15 15 -1 44 19 40 10 -2 19 -11 21 -21z m362 8
c0 -8 -4 -15 -10 -15 -5 0 -10 7 -10 15 0 8 5 15 10 15 6 0 10 -7 10 -15z
m9488 -2 c-2 -10 -10 -18 -18 -18 -8 0 -16 8 -18 18 -2 12 3 17 18 17 15 0 20
-5 18 -17z m-8700 -40 c-2 -10 -10 -18 -18 -18 -8 0 -16 8 -18 18 -2 12 3 17
18 17 15 0 20 -5 18 -17z m9747 -3 c8 -26 -1 -40 -26 -40 -22 0 -34 22 -25 45
8 22 44 18 51 -5z m-12945 0 c0 -5 -7 -10 -15 -10 -8 0 -15 5 -15 10 0 6 7 10
15 10 8 0 15 -4 15 -10z m1444 -12 c8 -14 6 -22 -10 -39 -18 -17 -25 -19 -43
-10 -11 7 -21 20 -21 29 0 41 52 55 74 20z m-434 2 c0 -5 -4 -10 -10 -10 -5 0
-10 5 -10 10 0 6 5 10 10 10 6 0 10 -4 10 -10z m2870 0 c0 -5 -4 -10 -10 -10
-5 0 -10 5 -10 10 0 6 5 10 10 10 6 0 10 -4 10 -10z m-7630 -10 c0 -5 -4 -10
-10 -10 -5 0 -10 5 -10 10 0 6 5 10 10 10 6 0 10 -4 10 -10z m9304 -11 c-3 -5
-10 -7 -15 -3 -5 3 -7 10 -3 15 3 5 10 7 15 3 5 -3 7 -10 3 -15z m836 -29 c0
-20 -5 -30 -15 -30 -8 0 -15 7 -15 15 0 8 4 15 10 15 5 0 7 7 4 15 -4 8 -1 15
5 15 6 0 11 -13 11 -30z m-1750 -6 c0 -8 -7 -14 -15 -14 -15 0 -21 21 -9 33
10 9 24 -2 24 -19z m170 16 c0 -5 -4 -10 -10 -10 -5 0 -10 5 -10 10 0 6 5 10
10 10 6 0 10 -4 10 -10z m132 -17 c32 -29 16 -73 -27 -73 -46 0 -60 48 -23 74
28 20 27 20 50 -1z m-8102 -13 c27 -27 26 -65 -2 -84 -29 -21 -51 -20 -70 2
-26 30 -28 50 -7 76 24 31 52 33 79 6z m1240 0 c0 -5 -4 -10 -10 -10 -5 0 -10
5 -10 10 0 6 5 10 10 10 6 0 10 -4 10 -10z m8000 -10 c0 -5 -4 -10 -10 -10 -5
0 -10 5 -10 10 0 6 5 10 10 10 6 0 10 -4 10 -10z m2645 -20 c0 -18 -6 -26 -21
-28 -26 -4 -40 24 -23 45 18 21 44 11 44 -17z m4245 5 c0 -8 -7 -15 -15 -15
-8 0 -15 7 -15 15 0 8 7 15 15 15 8 0 15 -7 15 -15z m-3830 -15 c0 -11 -6 -20
-14 -20 -18 0 -29 16 -21 30 11 18 35 11 35 -10z m3301 -3 c-1 -12 -15 -9 -19
4 -3 6 1 10 8 8 6 -3 11 -8 11 -12z m-2291 -7 c0 -5 -4 -10 -10 -10 -5 0 -10
5 -10 10 0 6 5 10 10 10 6 0 10 -4 10 -10z m-310 -15 c0 -8 -7 -15 -15 -15 -8
0 -15 7 -15 15 0 8 7 15 15 15 8 0 15 -7 15 -15z m2080 5 c0 -5 -4 -10 -10
-10 -5 0 -10 5 -10 10 0 6 5 10 10 10 6 0 10 -4 10 -10z m-1804 -25 c4 -15 13
-25 24 -25 23 0 32 -13 24 -34 -7 -19 -43 -21 -50 -3 -3 8 -16 12 -33 9 -35
-5 -53 21 -40 56 13 33 66 31 75 -3z m3168 16 c10 -16 -6 -42 -23 -39 -9 2
-17 13 -19 26 -3 16 2 22 17 22 11 0 22 -4 25 -9z m-6644 -22 c0 -5 -4 -9 -10
-9 -5 0 -10 7 -10 16 0 8 5 12 10 9 6 -3 10 -10 10 -16z m-10893 -15 c-9 -9
-28 6 -21 18 4 6 10 6 17 -1 6 -6 8 -13 4 -17z m6191 0 c2 -11 -4 -26 -12 -33
-31 -26 -71 14 -45 45 17 21 53 14 57 -12z m1140 15 c-2 -6 -8 -10 -13 -10 -5
0 -11 4 -13 10 -2 6 4 11 13 11 9 0 15 -5 13 -11z m3802 1 c0 -5 -4 -10 -9
-10 -6 0 -13 5 -16 10 -3 6 1 10 9 10 9 0 16 -4 16 -10z m6070 -20 c0 -5 -4
-10 -10 -10 -5 0 -10 5 -10 10 0 6 5 10 10 10 6 0 10 -4 10 -10z m-8800 -31
c0 -12 -7 -19 -20 -19 -19 0 -28 28 -14 43 11 11 34 -5 34 -24z m2710 21 c0
-5 -4 -10 -10 -10 -5 0 -10 5 -10 10 0 6 5 10 10 10 6 0 10 -4 10 -10z m-2219
-23 c-13 -13 -26 -3 -16 12 3 6 11 8 17 5 6 -4 6 -10 -1 -17z m-3243 -25 c2
-7 -6 -12 -17 -12 -21 0 -27 11 -14 24 9 9 26 2 31 -12z m7192 8 c0 -5 -7 -10
-15 -10 -8 0 -15 5 -15 10 0 6 7 10 15 10 8 0 15 -4 15 -10z m-1840 -10 c0 -5
-4 -10 -10 -10 -5 0 -10 5 -10 10 0 6 5 10 10 10 6 0 10 -4 10 -10z m2260 -11
c0 -5 -7 -9 -15 -9 -15 0 -20 12 -9 23 8 8 24 -1 24 -14z m-8425 -14 c0 -30
-39 -27 -43 3 -3 20 0 23 20 20 15 -2 23 -10 23 -23z m-215 -15 c8 -14 8 -26
0 -40 -19 -35 -80 -20 -80 20 0 40 61 55 80 20z m7120 -15 c0 -8 -4 -15 -10
-15 -5 0 -10 7 -10 15 0 8 5 15 10 15 6 0 10 -7 10 -15z m370 -10 c0 -8 -4
-15 -9 -15 -13 0 -22 16 -14 24 11 11 23 6 23 -9z m-5850 -10 c0 -8 -7 -15
-15 -15 -8 0 -15 7 -15 15 0 8 7 15 15 15 8 0 15 -7 15 -15z m709 1 c16 -20 3
-46 -24 -46 -13 0 -26 7 -29 16 -7 19 10 44 29 44 7 0 18 -6 24 -14z m1038
-12 c-9 -9 -28 6 -21 18 4 6 10 6 17 -1 6 -6 8 -13 4 -17z m5253 11 c0 -8 -4
-15 -9 -15 -13 0 -22 16 -14 24 11 11 23 6 23 -9z m-4112 -21 c24 -17 30 -65
10 -81 -27 -21 -47 -21 -72 -2 -31 25 -33 48 -6 77 25 26 38 27 68 6z m5656
-5 c-3 -5 -10 -7 -15 -3 -5 3 -7 10 -3 15 3 5 10 7 15 3 5 -3 7 -10 3 -15z
m-7314 -4 c0 -8 -7 -15 -15 -15 -8 0 -15 7 -15 15 0 8 7 15 15 15 8 0 15 -7
15 -15z m7880 5 c0 -5 -4 -10 -10 -10 -5 0 -10 5 -10 10 0 6 5 10 10 10 6 0
10 -4 10 -10z m-14060 -29 c0 -26 -17 -36 -35 -21 -18 15 -8 40 16 40 12 0 19
-7 19 -19z m1628 10 c21 -13 10 -46 -16 -49 -27 -4 -40 22 -22 43 14 17 20 18
38 6z m6642 -31 c0 -5 -4 -10 -10 -10 -5 0 -10 5 -10 10 0 6 5 10 10 10 6 0
10 -4 10 -10z m2630 -9 c0 -6 -4 -13 -10 -16 -5 -3 -10 1 -10 9 0 9 5 16 10
16 6 0 10 -4 10 -9z m5254 -27 c18 -17 19 -24 8 -40 -14 -20 -40 -23 -56 -5
-19 21 -20 33 -4 49 16 16 33 15 52 -4z m-12237 -20 c-9 -9 -28 6 -21 18 4 6
10 6 17 -1 6 -6 8 -13 4 -17z m2801 9 c-2 -10 -10 -18 -18 -18 -8 0 -16 8 -18
18 -2 12 3 17 18 17 15 0 20 -5 18 -17z m212 7 c0 -5 -4 -10 -10 -10 -5 0 -10
5 -10 10 0 6 5 10 10 10 6 0 10 -4 10 -10z m4835 -35 c0 -13 -8 -21 -22 -23
-17 -3 -23 2 -23 16 0 10 3 22 7 26 13 13 38 1 38 -19z m-1315 -26 c0 -5 -7
-9 -15 -9 -15 0 -20 12 -9 23 8 8 24 -1 24 -14z m-2512 0 c-2 -6 -8 -10 -13
-10 -5 0 -11 4 -13 10 -2 6 4 11 13 11 9 0 15 -5 13 -11z m1192 1 c0 -5 -2
-10 -4 -10 -3 0 -8 5 -11 10 -3 6 -1 10 4 10 6 0 11 -4 11 -10z m-3370 -21 c0
-5 -7 -9 -15 -9 -15 0 -20 12 -9 23 8 8 24 -1 24 -14z m4569 -3 c17 -20 2 -48
-23 -44 -24 3 -34 37 -14 49 18 12 24 11 37 -5z m-3088 -6 c23 -13 26 -62 3
-80 -24 -21 -68 -1 -72 31 -3 26 19 59 39 59 6 0 19 -5 30 -10z m-4881 -20 c0
-5 -4 -10 -10 -10 -5 0 -10 5 -10 10 0 6 5 10 10 10 6 0 10 -4 10 -10z m10431
-12 c10 -18 8 -24 -11 -40 -17 -13 -26 -15 -41 -8 -18 10 -26 50 -12 63 14 15
53 6 64 -15z m-8211 -21 c0 -17 -20 -37 -37 -37 -7 0 -17 9 -23 19 -14 28 13
55 41 41 10 -6 19 -16 19 -23z m640 23 c0 -5 -4 -10 -10 -10 -5 0 -10 5 -10
10 0 6 5 10 10 10 6 0 10 -4 10 -10z m7205 -10 c0 -7 -6 -15 -12 -17 -8 -3
-13 4 -13 17 0 13 5 20 13 18 6 -3 12 -11 12 -18z m-5760 -11 c0 -7 -8 -15
-17 -17 -18 -3 -25 18 -11 32 10 10 28 1 28 -15z m1405 11 c0 -5 -4 -10 -10
-10 -5 0 -10 5 -10 10 0 6 5 10 10 10 6 0 10 -4 10 -10z m-10010 -32 c25 -27
25 -43 0 -68 -24 -24 -47 -25 -72 -3 -22 20 -23 56 -2 77 22 22 50 20 74 -6z
m7550 7 c0 -8 -4 -15 -10 -15 -5 0 -10 7 -10 15 0 8 5 15 10 15 6 0 10 -7 10
-15z m5060 0 c0 -8 -4 -15 -9 -15 -13 0 -22 16 -14 24 11 11 23 6 23 -9z
m5220 5 c0 -5 -4 -10 -10 -10 -5 0 -10 5 -10 10 0 6 5 10 10 10 6 0 10 -4 10
-10z m-1517 -34 c23 -18 22 -59 -2 -80 -25 -23 -49 -18 -74 16 -19 25 -19 28
-3 52 18 29 51 33 79 12z m-12875 -53 c-2 -10 -10 -18 -18 -18 -8 0 -16 8 -18
18 -2 12 3 17 18 17 15 0 20 -5 18 -17z m922 2 c0 -8 -4 -15 -9 -15 -13 0 -22
16 -14 24 11 11 23 6 23 -9z m2590 5 c0 -5 -4 -10 -10 -10 -5 0 -10 5 -10 10
0 6 5 10 10 10 6 0 10 -4 10 -10z m3207 -26 c-9 -9 -28 6 -21 18 4 6 10 6 17
-1 6 -6 8 -13 4 -17z m8460 -10 c8 -21 -13 -42 -28 -27 -13 13 -5 43 11 43 6
0 13 -7 17 -16z m-3569 -22 c3 -16 -2 -22 -17 -22 -24 0 -35 15 -27 36 9 23
40 13 44 -14z m-10408 -7 c0 -8 -4 -15 -10 -15 -5 0 -10 7 -10 15 0 8 5 15 10
15 6 0 10 -7 10 -15z m3970 0 c0 -8 -4 -15 -10 -15 -5 0 -10 7 -10 15 0 8 5
15 10 15 6 0 10 -7 10 -15z m1180 -26 c0 -5 -7 -9 -15 -9 -15 0 -20 12 -9 23
8 8 24 -1 24 -14z m-3939 -22 c-1 -12 -15 -9 -19 4 -3 6 1 10 8 8 6 -3 11 -8
11 -12z m-5588 -9 c7 -21 -4 -38 -23 -38 -23 0 -32 13 -24 34 7 19 40 21 47 4z
m18291 1 c64 -30 50 -122 -21 -135 -32 -6 -40 -3 -60 20 -30 35 -29 69 2 101
29 28 42 30 79 14z m-11700 -20 c-3 -5 -10 -7 -15 -3 -5 3 -7 10 -3 15 3 5 10
7 15 3 5 -3 7 -10 3 -15z m-749 -19 c-5 -8 -11 -8 -17 -2 -6 6 -7 16 -3 22 5
8 11 8 17 2 6 -6 7 -16 3 -22z m3945 20 c0 -5 -4 -10 -10 -10 -5 0 -10 5 -10
10 0 6 5 10 10 10 6 0 10 -4 10 -10z m-8030 -15 c0 -8 -4 -15 -10 -15 -5 0
-10 7 -10 15 0 8 5 15 10 15 6 0 10 -7 10 -15z m13700 -16 c0 -5 -7 -9 -15 -9
-15 0 -20 12 -9 23 8 8 24 -1 24 -14z m-5039 -2 c-1 -12 -15 -9 -19 4 -3 6 1
10 8 8 6 -3 11 -8 11 -12z m5649 -2 c0 -8 -4 -15 -10 -15 -5 0 -10 7 -10 15 0
8 5 15 10 15 6 0 10 -7 10 -15z m-13256 -26 c-3 -5 -10 -7 -15 -3 -5 3 -7 10
-3 15 3 5 10 7 15 3 5 -3 7 -10 3 -15z m10516 1 c0 -21 -24 -28 -35 -10 -8 14
3 30 21 30 8 0 14 -9 14 -20z m-13440 0 c0 -5 -4 -10 -9 -10 -6 0 -13 5 -16
10 -3 6 1 10 9 10 9 0 16 -4 16 -10z m3420 -10 c0 -11 -7 -20 -15 -20 -15 0
-21 21 -8 33 12 13 23 7 23 -13z m7176 -1 c10 -17 -13 -36 -27 -22 -12 12 -4
33 11 33 5 0 12 -5 16 -11z m-2811 -39 c0 -8 -8 -16 -17 -18 -13 -2 -18 3 -18
18 0 15 5 20 18 18 9 -2 17 -10 17 -18z m-4544 -3 c-1 -12 -15 -9 -19 4 -3 6
1 10 8 8 6 -3 11 -8 11 -12z m12026 -3 c8 -21 -13 -42 -28 -27 -13 13 -5 43
11 43 6 0 13 -7 17 -16z m-9831 -21 c-10 -10 -19 5 -10 18 6 11 8 11 12 0 2
-7 1 -15 -2 -18z m6899 7 c0 -22 -29 -18 -33 3 -3 14 1 18 15 15 10 -2 18 -10
18 -18z m-6815 -10 c24 -24 24 -29 4 -58 -26 -38 -84 -23 -84 22 0 23 27 56
47 56 7 0 22 -9 33 -20z m4080 10 c0 -5 -4 -10 -10 -10 -5 0 -10 5 -10 10 0 6
5 10 10 10 6 0 10 -4 10 -10z m6290 -25 c0 -15 -26 -45 -40 -45 -13 0 -40 30
-40 44 0 7 10 18 23 23 25 12 57 0 57 -22z m-10292 3 c-6 -18 -28 -21 -28 -4
0 9 7 16 16 16 9 0 14 -5 12 -12z m9112 2 c0 -5 -4 -10 -10 -10 -5 0 -10 5
-10 10 0 6 5 10 10 10 6 0 10 -4 10 -10z m-2500 -10 c0 -5 -7 -10 -16 -10 -8
0 -12 5 -9 10 3 6 10 10 16 10 5 0 9 -4 9 -10z m-7365 -10 c-3 -5 -10 -10 -16
-10 -5 0 -9 5 -9 10 0 6 7 10 16 10 8 0 12 -4 9 -10z m11569 -35 c7 -19 -21
-46 -39 -39 -18 7 -20 51 -2 57 17 6 34 -2 41 -18z m-14616 3 c28 -28 7 -78
-33 -78 -42 0 -59 44 -29 74 18 19 45 21 62 4z m9812 -29 c0 -5 -4 -9 -10 -9
-5 0 -10 7 -10 16 0 8 5 12 10 9 6 -3 10 -10 10 -16z m2740 1 c0 -5 -4 -10
-10 -10 -5 0 -10 5 -10 10 0 6 5 10 10 10 6 0 10 -4 10 -10z m1680 -31 c0 -5
-7 -9 -15 -9 -15 0 -20 12 -9 23 8 8 24 -1 24 -14z m-2300 1 c0 -5 -4 -10 -10
-10 -5 0 -10 5 -10 10 0 6 5 10 10 10 6 0 10 -4 10 -10z m-9294 -28 c-22 -5
-30 3 -21 18 5 8 11 7 22 -2 15 -12 14 -13 -1 -16z m11309 18 c-3 -5 -10 -10
-16 -10 -5 0 -9 5 -9 10 0 6 7 10 16 10 8 0 12 -4 9 -10z m-11709 -11 c10 -17
-13 -36 -27 -22 -12 12 -4 33 11 33 5 0 12 -5 16 -11z m12319 -19 c0 -16 -6
-26 -18 -28 -19 -4 -32 20 -23 44 9 25 41 13 41 -16z m-5395 -51 c0 -5 -7 -9
-15 -9 -15 0 -20 12 -9 23 8 8 24 -1 24 -14z m1910 11 c0 -5 -4 -10 -10 -10
-5 0 -10 5 -10 10 0 6 5 10 10 10 6 0 10 -4 10 -10z m-9600 -40 c0 -5 -4 -10
-10 -10 -5 0 -10 5 -10 10 0 6 5 10 10 10 6 0 10 -4 10 -10z m1577 -36 c8 -21
-13 -42 -28 -27 -13 13 -5 43 11 43 6 0 13 -7 17 -16z m4801 5 c-2 -6 -8 -10
-13 -10 -5 0 -11 4 -13 10 -2 6 4 11 13 11 9 0 15 -5 13 -11z m-2508 -19 c0
-5 -4 -10 -10 -10 -5 0 -10 5 -10 10 0 6 5 10 10 10 6 0 10 -4 10 -10z m408
-2 c-6 -18 -28 -21 -28 -4 0 9 7 16 16 16 9 0 14 -5 12 -12z m2296 -9 c-3 -5
-10 -7 -15 -3 -5 3 -7 10 -3 15 3 5 10 7 15 3 5 -3 7 -10 3 -15z m-654 -9 c0
-11 -6 -20 -14 -20 -18 0 -29 16 -21 30 11 18 35 11 35 -10z m5400 5 c0 -8 -4
-15 -10 -15 -5 0 -10 7 -10 15 0 8 5 15 10 15 6 0 10 -7 10 -15z m1830 -10 c0
-8 -4 -15 -10 -15 -5 0 -10 7 -10 15 0 8 5 15 10 15 6 0 10 -7 10 -15z m-8470
-5 c11 0 25 -26 33 -60 5 -20 2 -26 -11 -27 -9 -1 -27 -4 -39 -8 -23 -8 -63
23 -63 50 0 20 42 57 58 50 7 -3 18 -5 22 -5z m5863 -32 c8 -12 7 -21 -2 -32
-19 -23 -58 -20 -66 4 -14 43 44 67 68 28z m4487 -3 c0 -8 -7 -15 -15 -15 -8
0 -15 7 -15 15 0 8 7 15 15 15 8 0 15 -7 15 -15z m-6733 -51 c-9 -9 -28 6 -21
18 4 6 10 6 17 -1 6 -6 8 -13 4 -17z m2493 2 c0 -29 -24 -40 -44 -20 -20 20
-9 44 20 44 19 0 24 -5 24 -24z m2716 6 c36 -25 11 -85 -34 -80 -33 4 -53 48
-32 72 13 17 47 21 66 8z m1484 -22 c0 -13 -7 -20 -20 -20 -13 0 -20 7 -20 20
0 13 7 20 20 20 13 0 20 -7 20 -20z m-720 -30 c0 -24 -26 -38 -42 -22 -16 16
-2 42 22 42 13 0 20 -7 20 -20z m-7364 -11 c3 -6 0 -17 -7 -25 -18 -17 -44 -2
-36 20 7 18 33 21 43 5z m7934 -9 c0 -13 -7 -20 -20 -20 -13 0 -20 7 -20 20 0
13 7 20 20 20 13 0 20 -7 20 -20z m-1895 -20 c0 -18 -6 -26 -23 -28 -24 -4
-38 18 -28 44 3 9 15 14 28 12 17 -2 23 -10 23 -28z m-10725 1 c12 -23 -12
-54 -38 -49 -21 4 -36 32 -29 52 9 22 54 20 67 -3z m3530 3 c0 -8 -4 -12 -10
-9 -5 3 -10 10 -10 16 0 5 5 9 10 9 6 0 10 -7 10 -16z m-4623 -16 c13 -12 23
-32 23 -45 0 -30 -42 -73 -71 -73 -32 0 -69 38 -69 72 0 60 71 89 117 46z
m11393 -23 c0 -8 -6 -15 -14 -15 -17 0 -28 14 -19 24 12 12 33 6 33 -9z
m-14822 -43 c4 -28 -14 -52 -38 -52 -26 0 -43 26 -36 55 6 22 11 26 39 23 25
-2 33 -8 35 -26z m11562 -7 c0 -8 -4 -15 -9 -15 -13 0 -22 16 -14 24 11 11 23
6 23 -9z m2344 -2 c4 -9 0 -23 -8 -31 -12 -13 -18 -13 -30 -2 -9 7 -16 21 -16
31 0 24 45 26 54 2z m3159 -5 c7 -21 -4 -38 -23 -38 -10 0 -20 6 -23 13 -7 20
4 37 23 37 10 0 20 -6 23 -12z m-18653 -8 c0 -5 -7 -10 -15 -10 -8 0 -15 5
-15 10 0 6 7 10 15 10 8 0 15 -4 15 -10z m10718 -32 c15 -15 16 -45 1 -53 -18
-12 -59 4 -59 23 0 20 18 42 35 42 6 0 16 -5 23 -12z m5222 2 c0 -5 -4 -10
-10 -10 -5 0 -10 5 -10 10 0 6 5 10 10 10 6 0 10 -4 10 -10z m-2709 -15 c-1
-15 -24 -12 -29 3 -3 9 2 13 12 10 10 -1 17 -7 17 -13z m-10683 -48 c2 -10 -3
-17 -12 -17 -18 0 -29 16 -21 31 9 14 29 6 33 -14z m5068 12 c10 -17 -13 -36
-27 -22 -12 12 -4 33 11 33 5 0 12 -5 16 -11z m4520 -16 c-10 -10 -19 5 -10
18 6 11 8 11 12 0 2 -7 1 -15 -2 -18z m-3726 -28 c0 -8 -7 -15 -15 -15 -16 0
-20 12 -8 23 11 12 23 8 23 -8z m70 0 c0 -8 -4 -15 -10 -15 -5 0 -10 7 -10 15
0 8 5 15 10 15 6 0 10 -7 10 -15z m-620 -35 c0 -5 -4 -10 -9 -10 -6 0 -13 5
-16 10 -3 6 1 10 9 10 9 0 16 -4 16 -10z m1420 0 c0 -5 -4 -10 -10 -10 -5 0
-10 5 -10 10 0 6 5 10 10 10 6 0 10 -4 10 -10z m-3750 -20 c0 -5 -4 -10 -10
-10 -5 0 -10 5 -10 10 0 6 5 10 10 10 6 0 10 -4 10 -10z m7220 0 c0 -5 -7 -10
-15 -10 -8 0 -15 5 -15 10 0 6 7 10 15 10 8 0 15 -4 15 -10z m3104 -32 c15
-24 -3 -52 -37 -56 -33 -4 -53 28 -37 59 14 25 58 23 74 -3z m-15374 -18 c0
-13 -7 -20 -19 -20 -22 0 -35 15 -26 30 12 19 45 11 45 -10z m7720 -5 c0 -8
-4 -15 -9 -15 -13 0 -22 16 -14 24 11 11 23 6 23 -9z m-4880 -65 c0 -5 -4 -10
-10 -10 -5 0 -10 5 -10 10 0 6 5 10 10 10 6 0 10 -4 10 -10z m10880 0 c0 -5
-5 -10 -11 -10 -5 0 -7 5 -4 10 3 6 8 10 11 10 2 0 4 -4 4 -10z m-8960 -10 c0
-5 -4 -10 -10 -10 -5 0 -10 5 -10 10 0 6 5 10 10 10 6 0 10 -4 10 -10z m3114
-9 c32 -36 -5 -88 -50 -71 -28 11 -36 43 -17 69 18 26 45 27 67 2z m-5547 -7
c3 -8 1 -20 -5 -26 -15 -15 -43 8 -35 28 7 19 32 18 40 -2z m2093 -23 c0 -6
-4 -13 -10 -16 -5 -3 -10 1 -10 9 0 9 5 16 10 16 6 0 10 -4 10 -9z m6812 -18
c22 -20 24 -43 3 -43 -8 0 -15 7 -15 15 0 8 -5 14 -12 13 -6 -2 -14 5 -16 15
-4 22 16 22 40 0z m2718 -9 c0 -17 -22 -14 -28 4 -2 7 3 12 12 12 9 0 16 -7
16 -16z m2710 -5 c0 -5 -4 -9 -10 -9 -5 0 -10 7 -10 16 0 8 5 12 10 9 6 -3 10
-10 10 -16z m-7130 -29 c0 -5 -4 -10 -10 -10 -5 0 -10 5 -10 10 0 6 5 10 10
10 6 0 10 -4 10 -10z m-1644 -11 c10 -17 -13 -36 -27 -22 -12 12 -4 33 11 33
5 0 12 -5 16 -11z m3254 1 c0 -5 -7 -10 -15 -10 -8 0 -15 5 -15 10 0 6 7 10
15 10 8 0 15 -4 15 -10z m-2135 -21 c0 -7 -8 -15 -17 -17 -18 -3 -25 18 -11
32 10 10 28 1 28 -15z m-4995 -10 c0 -5 -7 -9 -15 -9 -15 0 -20 12 -9 23 8 8
24 -1 24 -14z m4250 11 c0 -5 -4 -10 -10 -10 -5 0 -10 5 -10 10 0 6 5 10 10
10 6 0 10 -4 10 -10z m7855 -8 c0 -18 -20 -15 -23 4 -3 10 1 15 10 12 7 -3 13
-10 13 -16z m-7870 -33 c4 -11 1 -26 -5 -34 -27 -32 -78 -5 -65 34 11 35 59
34 70 0z m1195 21 c0 -5 -4 -10 -10 -10 -5 0 -10 5 -10 10 0 6 5 10 10 10 6 0
10 -4 10 -10z m6378 -2 c-6 -18 -28 -21 -28 -4 0 9 7 16 16 16 9 0 14 -5 12
-12z m-9558 -8 c0 -5 -4 -10 -10 -10 -5 0 -10 5 -10 10 0 6 5 10 10 10 6 0 10
-4 10 -10z m8738 -63 c4 -20 -25 -34 -39 -20 -14 14 1 45 20 41 9 -2 17 -11
19 -21z m-12113 3 c3 -5 -1 -10 -9 -10 -9 0 -16 5 -16 10 0 6 4 10 9 10 6 0
13 -4 16 -10z m1005 -15 c0 -8 -7 -15 -15 -15 -8 0 -15 7 -15 15 0 8 7 15 15
15 8 0 15 -7 15 -15z m13061 -40 c-1 -15 -24 -12 -29 3 -3 9 2 13 12 10 10 -1
17 -7 17 -13z m-2551 -15 c0 -5 -7 -10 -15 -10 -8 0 -15 5 -15 10 0 6 7 10 15
10 8 0 15 -4 15 -10z m-2050 -20 c0 -5 -4 -10 -10 -10 -5 0 -10 5 -10 10 0 6
5 10 10 10 6 0 10 -4 10 -10z m-1062 -29 c22 -27 11 -74 -21 -89 -34 -16 -65
-7 -79 23 -31 67 55 124 100 66z m-1858 -21 c0 -5 -4 -10 -10 -10 -5 0 -10 5
-10 10 0 6 5 10 10 10 6 0 10 -4 10 -10z m-2650 -44 c0 -8 -7 -19 -15 -26 -28
-23 -60 21 -33 48 14 14 48 -2 48 -22z m3300 -16 c0 -5 -4 -10 -9 -10 -6 0
-13 5 -16 10 -3 6 1 10 9 10 9 0 16 -4 16 -10z m6570 1 c0 -14 -18 -23 -30
-16 -6 4 -8 11 -5 16 8 12 35 12 35 0z m1450 -12 c0 -5 -7 -9 -15 -9 -15 0
-20 12 -9 23 8 8 24 -1 24 -14z m-8620 2 c0 -6 -4 -13 -10 -16 -5 -3 -10 1
-10 9 0 9 5 16 10 16 6 0 10 -4 10 -9z m-5760 -41 c0 -11 -7 -20 -15 -20 -8 0
-15 9 -15 20 0 11 7 20 15 20 8 0 15 -9 15 -20z m70 10 c0 -5 -4 -10 -10 -10
-5 0 -10 5 -10 10 0 6 5 10 10 10 6 0 10 -4 10 -10z m1670 -31 c0 -5 -4 -9
-10 -9 -5 0 -10 7 -10 16 0 8 5 12 10 9 6 -3 10 -10 10 -16z m8615 -13 c39
-39 13 -96 -44 -96 -58 1 -80 56 -41 98 27 29 55 28 85 -2z m-6027 -24 c38
-46 7 -112 -53 -112 -60 0 -100 60 -70 106 32 50 83 52 123 6z m2882 3 c0 -8
-4 -15 -9 -15 -13 0 -22 16 -14 24 11 11 23 6 23 -9z m1367 -6 c16 -16 5 -39
-17 -39 -23 0 -34 16 -26 35 6 18 28 19 43 4z m2198 -29 c0 -8 -8 -16 -17 -18
-13 -2 -18 3 -18 18 0 15 5 20 18 18 9 -2 17 -10 17 -18z m-8905 0 c0 -5 -4
-10 -10 -10 -5 0 -10 5 -10 10 0 6 5 10 10 10 6 0 10 -4 10 -10z m5468 -8 c2
-7 -3 -12 -12 -12 -9 0 -16 7 -16 16 0 17 22 14 28 -4z m1172 8 c0 -5 -4 -10
-10 -10 -5 0 -10 5 -10 10 0 6 5 10 10 10 6 0 10 -4 10 -10z m6036 -27 c-10
-10 -19 5 -10 18 6 11 8 11 12 0 2 -7 1 -15 -2 -18z m-18018 -17 c-4 -25 -36
-34 -44 -12 -8 21 13 46 32 39 8 -3 14 -15 12 -27z m11782 24 c0 -5 -4 -10
-10 -10 -5 0 -10 5 -10 10 0 6 5 10 10 10 6 0 10 -4 10 -10z m320 -24 c0 -3
-4 -8 -10 -11 -5 -3 -10 -1 -10 4 0 6 5 11 10 11 6 0 10 -2 10 -4z m861 -12
c17 -21 0 -49 -32 -49 -24 0 -36 23 -25 51 7 19 40 18 57 -2z m3259 6 c0 -5
-7 -10 -16 -10 -8 0 -12 5 -9 10 3 6 10 10 16 10 5 0 9 -4 9 -10z m-7270 -50
c0 -28 -25 -43 -49 -30 -22 11 -26 27 -13 46 19 29 62 19 62 -16z m1894 24
c19 -19 20 -35 3 -58 -17 -23 -55 -18 -73 9 -12 18 -11 24 2 43 18 26 46 28
68 6z m-8536 -40 c4 -26 -20 -37 -44 -20 -24 18 -11 48 18 44 14 -2 24 -11 26
-24z m15520 4 c-6 -18 -28 -21 -28 -4 0 9 7 16 16 16 9 0 14 -5 12 -12z m-724
-17 c10 -16 -6 -42 -23 -39 -9 2 -17 13 -19 26 -3 16 2 22 17 22 11 0 22 -4
25 -9z m-17649 -20 c7 -12 -12 -24 -25 -16 -11 7 -4 25 10 25 5 0 11 -4 15 -9z
m3708 -6 c15 -15 12 -50 -5 -61 -5 -3 -20 -3 -34 0 -17 5 -24 13 -24 29 0 42
35 60 63 32z m10504 7 c7 -4 15 -22 19 -39 5 -24 1 -36 -15 -52 -26 -26 -41
-26 -75 0 -30 23 -33 45 -10 77 15 22 57 29 81 14z m-8577 -12 c0 -5 -7 -10
-16 -10 -8 0 -12 5 -9 10 3 6 10 10 16 10 5 0 9 -4 9 -10z m120 -36 c0 -8 -7
-14 -15 -14 -15 0 -21 21 -9 33 10 9 24 -2 24 -19z m-5431 -8 c17 -20 2 -48
-23 -44 -24 3 -34 37 -14 49 18 12 24 11 37 -5z m5871 4 c0 -5 -4 -10 -10 -10
-5 0 -10 5 -10 10 0 6 5 10 10 10 6 0 10 -4 10 -10z m3183 -5 c8 -18 -11 -31
-25 -17 -11 11 -3 32 12 32 4 0 10 -7 13 -15z m6433 -56 c3 -6 1 -16 -5 -22
-9 -9 -14 -8 -21 3 -9 15 -4 30 10 30 5 0 12 -5 16 -11z m-4756 -29 c0 -5 -4
-10 -10 -10 -5 0 -10 5 -10 10 0 6 5 10 10 10 6 0 10 -4 10 -10z m6360 -15 c0
-8 -4 -15 -9 -15 -13 0 -22 16 -14 24 11 11 23 6 23 -9z m-11399 -8 c-1 -12
-15 -9 -19 4 -3 6 1 10 8 8 6 -3 11 -8 11 -12z m-3051 -52 c0 -8 -6 -15 -14
-15 -17 0 -28 14 -19 24 12 12 33 6 33 -9z m9490 11 c0 -3 -4 -8 -10 -11 -5
-3 -10 -1 -10 4 0 6 5 11 10 11 6 0 10 -2 10 -4z m90 -17 c0 -5 -7 -9 -15 -9
-15 0 -20 12 -9 23 8 8 24 -1 24 -14z m-6570 -15 c0 -17 -22 -14 -28 4 -2 7 3
12 12 12 9 0 16 -7 16 -16z m74 0 c8 -21 -1 -34 -24 -34 -20 0 -30 17 -22 38
6 17 39 15 46 -4z m1436 1 c0 -8 -6 -15 -14 -15 -17 0 -28 14 -19 24 12 12 33
6 33 -9z m3804 0 c19 -19 10 -45 -15 -45 -25 0 -35 26 -19 45 15 18 15 18 34
0z m6120 -11 c7 -19 -1 -34 -19 -34 -18 0 -28 17 -21 35 7 20 32 19 40 -1z
m-12250 -35 c-3 -5 -10 -7 -15 -3 -5 3 -7 10 -3 15 3 5 10 7 15 3 5 -3 7 -10
3 -15z m1801 11 c-3 -5 -10 -10 -16 -10 -5 0 -9 5 -9 10 0 6 7 10 16 10 8 0
12 -4 9 -10z m3339 4 c21 -8 20 -40 -1 -48 -21 -9 -46 16 -37 37 7 18 14 20
38 11z m746 -54 c0 -5 -4 -10 -10 -10 -5 0 -10 5 -10 10 0 6 5 10 10 10 6 0
10 -4 10 -10z m6808 -63 c2 -12 -3 -17 -17 -17 -12 0 -21 6 -21 13 0 31 32 34
38 4z m-9570 1 c-6 -18 -28 -21 -28 -4 0 9 7 16 16 16 9 0 14 -5 12 -12z
m4046 -4 c7 -19 -1 -34 -19 -34 -18 0 -28 17 -21 35 7 20 32 19 40 -1z
m-10138 -15 c10 -17 -13 -36 -27 -22 -12 12 -4 33 11 33 5 0 12 -5 16 -11z
m4114 -10 c0 -5 -4 -9 -10 -9 -5 0 -10 7 -10 16 0 8 5 12 10 9 6 -3 10 -10 10
-16z m3935 0 c0 -7 -8 -15 -17 -17 -18 -3 -25 18 -11 32 10 10 28 1 28 -15z
m6405 6 c0 -8 -4 -15 -10 -15 -5 0 -10 7 -10 15 0 8 5 15 10 15 6 0 10 -7 10
-15z m-15365 -5 c3 -5 1 -10 -4 -10 -6 0 -11 5 -11 10 0 6 2 10 4 10 3 0 8 -4
11 -10z m12572 -6 c8 -21 -13 -42 -28 -27 -13 13 -5 43 11 43 6 0 13 -7 17
-16z m-12856 -4 c37 -20 18 -80 -26 -80 -27 0 -45 18 -45 45 0 40 32 55 71 35z
m6500 -13 c-1 -12 -15 -9 -19 4 -3 6 1 10 8 8 6 -3 11 -8 11 -12z m3469 3 c0
-5 -7 -10 -15 -10 -8 0 -15 5 -15 10 0 6 7 10 15 10 8 0 15 -4 15 -10z m-126
-21 c-3 -5 -10 -7 -15 -3 -5 3 -7 10 -3 15 3 5 10 7 15 3 5 -3 7 -10 3 -15z
m-5367 -15 c-9 -9 -28 6 -21 18 4 6 10 6 17 -1 6 -6 8 -13 4 -17z m9024 13
c-1 -12 -15 -9 -19 4 -3 6 1 10 8 8 6 -3 11 -8 11 -12z m-13691 -42 c0 -8 -7
-15 -15 -15 -16 0 -20 12 -8 23 11 12 23 8 23 -8z m-430 -49 c0 -20 -25 -37
-43 -30 -23 8 -28 31 -11 49 18 17 54 4 54 -19z m11064 8 c25 -24 20 -71 -9
-90 -54 -35 -116 28 -80 82 18 28 65 33 89 8z m-7394 -59 c0 -8 -7 -15 -15
-15 -16 0 -20 12 -8 23 11 12 23 8 23 -8z m9695 -45 c-5 -8 -11 -8 -17 -2 -6
6 -7 16 -3 22 5 8 11 8 17 2 6 -6 7 -16 3 -22z m3375 0 c0 -11 -7 -20 -15 -20
-8 0 -15 9 -15 20 0 11 7 20 15 20 8 0 15 -9 15 -20z m-5850 0 c0 -5 -4 -10
-10 -10 -5 0 -10 5 -10 10 0 6 5 10 10 10 6 0 10 -4 10 -10z m-7260 -21 c0 -5
-7 -9 -15 -9 -15 0 -20 12 -9 23 8 8 24 -1 24 -14z m14360 5 c0 -8 -4 -12 -10
-9 -5 3 -10 10 -10 16 0 5 5 9 10 9 6 0 10 -7 10 -16z m-8413 -30 c-9 -9 -28
6 -21 18 4 6 10 6 17 -1 6 -6 8 -13 4 -17z m5923 16 c0 -5 -4 -10 -10 -10 -5
0 -10 5 -10 10 0 6 5 10 10 10 6 0 10 -4 10 -10z m-7778 -25 c0 -5 -5 -11 -11
-13 -6 -2 -11 4 -11 13 0 9 5 15 11 13 6 -2 11 -8 11 -13z m5488 -40 c0 -8 -4
-15 -10 -15 -5 0 -10 7 -10 15 0 8 5 15 10 15 6 0 10 -7 10 -15z m4215 -45 c0
-22 -29 -18 -33 3 -3 14 1 18 15 15 10 -2 18 -10 18 -18z m-11697 -28 c2 -7
-3 -12 -12 -12 -9 0 -16 7 -16 16 0 17 22 14 28 -4z m5282 -7 c0 -8 -4 -15
-10 -15 -5 0 -10 7 -10 15 0 8 5 15 10 15 6 0 10 -7 10 -15z m-7496 -16 c-3
-5 -10 -7 -15 -3 -5 3 -7 10 -3 15 3 5 10 7 15 3 5 -3 7 -10 3 -15z m11474 -2
c2 -10 -3 -17 -12 -17 -18 0 -29 16 -21 31 9 14 29 6 33 -14z m-5884 -3 c12
-32 6 -55 -19 -66 -19 -8 -28 -8 -40 2 -15 13 -21 61 -8 73 13 13 61 7 67 -9z
m-3614 -4 c0 -5 -4 -10 -9 -10 -6 0 -13 5 -16 10 -3 6 1 10 9 10 9 0 16 -4 16
-10z m8498 -13 c2 -10 -3 -17 -12 -17 -10 0 -16 9 -16 21 0 24 23 21 28 -4z
m952 -8 c0 -5 -7 -9 -15 -9 -15 0 -20 12 -9 23 8 8 24 -1 24 -14z m-826 -5 c9
-8 16 -22 16 -29 0 -18 -27 -45 -45 -45 -38 0 -59 61 -27 79 24 15 38 13 56
-5z m3821 -24 c0 -22 -29 -18 -33 3 -3 14 1 18 15 15 10 -2 18 -10 18 -18z
m-1497 -76 c2 -11 -3 -26 -11 -33 -29 -24 -70 17 -46 46 17 20 53 12 57 -13z
m-3720 4 c27 -27 4 -78 -37 -78 -14 0 -41 29 -41 45 0 35 53 58 78 33z m-7230
-55 c12 -10 24 -30 28 -45 5 -22 0 -34 -25 -59 -26 -25 -37 -30 -59 -24 -15 3
-38 7 -51 8 -26 2 -39 21 -22 32 6 3 11 19 11 34 0 59 73 92 118 54z m-2268
-9 c18 -21 -9 -49 -39 -39 -20 6 -28 34 -14 48 11 12 40 7 53 -9z m-1540 -44
c0 -5 -4 -10 -10 -10 -5 0 -10 5 -10 10 0 6 5 10 10 10 6 0 10 -4 10 -10z
m5680 -5 c0 -8 -7 -15 -15 -15 -8 0 -15 7 -15 15 0 8 7 15 15 15 8 0 15 -7 15
-15z m6002 -8 c4 -6 2 -17 -4 -25 -9 -11 -16 -8 -35 12 -13 14 -23 28 -23 32
0 10 54 -6 62 -19z m-2804 -23 c3 -22 -21 -39 -39 -28 -11 6 -12 38 -2 48 13
13 38 1 41 -20z m6782 16 c0 -5 -4 -10 -10 -10 -5 0 -10 5 -10 10 0 6 5 10 10
10 6 0 10 -4 10 -10z m-7230 -19 c0 -6 -4 -13 -10 -16 -5 -3 -10 1 -10 9 0 9
5 16 10 16 6 0 10 -4 10 -9z m-1530 -36 c0 -8 -4 -15 -9 -15 -13 0 -22 16 -14
24 11 11 23 6 23 -9z m5444 -11 c12 -12 13 -20 6 -35 -11 -20 -19 -23 -44 -13
-19 7 -21 50 -3 57 20 9 25 8 41 -9z m-4804 -14 c32 -32 24 -72 -19 -94 -48
-25 -99 16 -85 69 12 46 69 60 104 25z m-4600 -51 c0 -5 -7 -9 -15 -9 -15 0
-20 12 -9 23 8 8 24 -1 24 -14z m240 11 c0 -5 -4 -10 -10 -10 -5 0 -10 5 -10
10 0 6 5 10 10 10 6 0 10 -4 10 -10z m-1740 -10 c0 -5 -4 -10 -10 -10 -5 0
-10 5 -10 10 0 6 5 10 10 10 6 0 10 -4 10 -10z m7501 -13 c-1 -12 -15 -9 -19
4 -3 6 1 10 8 8 6 -3 11 -8 11 -12z m-6726 -47 c0 -18 -6 -26 -23 -28 -24 -4
-38 18 -28 44 3 9 15 14 28 12 17 -2 23 -10 23 -28z m1975 20 c0 -5 -4 -10
-10 -10 -5 0 -10 5 -10 10 0 6 5 10 10 10 6 0 10 -4 10 -10z m2745 -30 c0 -8
-10 -16 -22 -18 -18 -3 -23 2 -23 18 0 16 5 21 23 18 12 -2 22 -10 22 -18z
m-125 -70 c0 -5 -4 -10 -10 -10 -5 0 -10 5 -10 10 0 6 5 10 10 10 6 0 10 -4
10 -10z m6440 -35 c0 -8 -7 -15 -15 -15 -16 0 -20 12 -8 23 11 12 23 8 23 -8z
m-8640 -5 c0 -5 -4 -10 -10 -10 -5 0 -10 5 -10 10 0 6 5 10 10 10 6 0 10 -4
10 -10z m5274 -13 c25 -21 28 -28 22 -59 -8 -46 -55 -68 -92 -43 -43 28 -44
92 -2 113 33 15 40 14 72 -11z m-9106 -4 c22 -41 -16 -75 -62 -57 -19 7 -21
45 -4 62 18 18 56 15 66 -5z m1542 2 c0 -8 -7 -15 -15 -15 -16 0 -20 12 -8 23
11 12 23 8 23 -8z m-4490 -21 c0 -20 -30 -30 -40 -13 -11 17 7 40 26 32 8 -3
14 -12 14 -19z m13000 -4 c0 -5 -7 -10 -15 -10 -8 0 -15 5 -15 10 0 6 7 10 15
10 8 0 15 -4 15 -10z m-11260 -15 c0 -8 -4 -15 -10 -15 -5 0 -10 7 -10 15 0 8
5 15 10 15 6 0 10 -7 10 -15z m290 -31 c0 -17 -26 -19 -36 -3 -7 12 15 31 28
23 4 -3 8 -12 8 -20z m8190 10 c0 -8 -5 -12 -10 -9 -6 4 -8 11 -5 16 9 14 15
11 15 -7z m-1892 -26 c16 -16 15 -23 -3 -42 -20 -20 -45 -10 -45 18 0 36 24
48 48 24z m4932 2 c0 -5 -5 -10 -11 -10 -5 0 -7 5 -4 10 3 6 8 10 11 10 2 0 4
-4 4 -10z m-6452 -12 c16 -16 15 -53 -2 -68 -21 -16 -56 -9 -72 15 -27 41 39
88 74 53z m-3690 -25 c-2 -10 -10 -18 -18 -18 -8 0 -16 8 -18 18 -2 12 3 17
18 17 15 0 20 -5 18 -17z m-1070 -5 c-6 -18 -28 -21 -28 -4 0 9 7 16 16 16 9
0 14 -5 12 -12z m4442 -33 c0 -33 -33 -51 -54 -29 -18 18 -18 17 -10 38 4 10
18 16 35 16 24 0 29 -4 29 -25z m8438 3 c21 -21 14 -58 -14 -68 -34 -13 -64 3
-64 35 0 37 52 59 78 33z m-2848 -48 c0 -5 -2 -10 -4 -10 -3 0 -8 5 -11 10 -3
6 -1 10 4 10 6 0 11 -4 11 -10z m965 -40 c-5 -8 -11 -8 -17 -2 -6 6 -7 16 -3
22 5 8 11 8 17 2 6 -6 7 -16 3 -22z m573 14 c14 -9 22 -26 22 -43 0 -59 -56
-86 -96 -46 -31 31 -30 59 2 84 32 25 43 26 72 5z m-8303 -30 c0 -10 -8 -20
-18 -22 -22 -4 -35 27 -16 39 20 12 34 5 34 -17z m9733 5 c-2 -6 -8 -10 -13
-10 -5 0 -11 4 -13 10 -2 6 4 11 13 11 9 0 15 -5 13 -11z m-2848 -35 c0 -17
-26 -19 -36 -3 -7 12 15 31 28 23 4 -3 8 -12 8 -20z m3379 7 c14 -26 -8 -54
-39 -49 -25 3 -36 27 -26 54 8 20 53 17 65 -5z m2551 -11 c0 -5 -4 -10 -10
-10 -5 0 -10 5 -10 10 0 6 5 10 10 10 6 0 10 -4 10 -10z m-5442 -44 c-4 -25
-36 -34 -44 -12 -8 21 13 46 32 39 8 -3 14 -15 12 -27z m-3178 9 c0 -8 -4 -15
-9 -15 -13 0 -22 16 -14 24 11 11 23 6 23 -9z m-4120 -16 c0 -5 -4 -9 -10 -9
-5 0 -10 7 -10 16 0 8 5 12 10 9 6 -3 10 -10 10 -16z m915 11 c3 -6 -1 -13
-10 -16 -19 -8 -30 0 -20 15 8 14 22 14 30 1z m-2625 -26 c0 -9 -5 -14 -12
-12 -18 6 -21 28 -4 28 9 0 16 -7 16 -16z m3649 -50 c16 -21 18 -30 9 -50 -21
-45 -98 -27 -98 23 0 17 36 53 54 53 8 0 24 -12 35 -26z m7426 5 c0 -7 -8 -15
-17 -17 -18 -3 -25 18 -11 32 10 10 28 1 28 -15z m-4570 -10 c0 -7 -8 -15 -17
-17 -18 -3 -25 18 -11 32 10 10 28 1 28 -15z m1945 -9 c0 -21 -24 -28 -35 -10
-8 14 3 30 21 30 8 0 14 -9 14 -20z m-11834 -17 c-10 -10 -19 5 -10 18 6 11 8
11 12 0 2 -7 1 -15 -2 -18z m3454 17 c0 -5 -4 -10 -10 -10 -5 0 -10 5 -10 10
0 6 5 10 10 10 6 0 10 -4 10 -10z m2390 -11 c0 -5 -7 -9 -15 -9 -15 0 -20 12
-9 23 8 8 24 -1 24 -14z m5900 -18 c0 -14 -18 -23 -30 -16 -6 4 -8 11 -5 16 8
12 35 12 35 0z m-11750 -22 c0 -5 -4 -9 -10 -9 -5 0 -10 7 -10 16 0 8 5 12 10
9 6 -3 10 -10 10 -16z m5224 5 c21 -8 21 -60 0 -72 -24 -13 -54 -3 -64 22 -15
41 18 68 64 50z m-1354 -34 c0 -5 -4 -10 -10 -10 -5 0 -10 5 -10 10 0 6 5 10
10 10 6 0 10 -4 10 -10z m-770 -31 c0 -5 -7 -9 -15 -9 -15 0 -20 12 -9 23 8 8
24 -1 24 -14z m2390 -20 c0 -5 -7 -9 -15 -9 -15 0 -20 12 -9 23 8 8 24 -1 24
-14z m4416 -6 c-10 -10 -19 5 -10 18 6 11 8 11 12 0 2 -7 1 -15 -2 -18z m2354
-19 c0 -8 -4 -12 -10 -9 -5 3 -10 10 -10 16 0 5 5 9 10 9 6 0 10 -7 10 -16z
m3300 6 c0 -5 -4 -10 -10 -10 -5 0 -10 5 -10 10 0 6 5 10 10 10 6 0 10 -4 10
-10z m-10955 -40 c-5 -8 -11 -8 -17 -2 -6 6 -7 16 -3 22 5 8 11 8 17 2 6 -6 7
-16 3 -22z m3794 21 c19 -12 6 -41 -19 -41 -13 0 -20 7 -20 18 0 31 14 39 39
23z m1946 -51 c3 -5 -1 -10 -10 -10 -9 0 -13 5 -10 10 3 6 8 10 10 10 2 0 7
-4 10 -10z m505 -5 c0 -8 -4 -15 -9 -15 -13 0 -22 16 -14 24 11 11 23 6 23 -9z
m4330 -11 c0 -8 -5 -12 -10 -9 -6 4 -8 11 -5 16 9 14 15 11 15 -7z m-3640 -29
c0 -8 -4 -15 -9 -15 -13 0 -22 16 -14 24 11 11 23 6 23 -9z m60 -35 c0 -5 -4
-10 -10 -10 -5 0 -10 5 -10 10 0 6 5 10 10 10 6 0 10 -4 10 -10z m-3338 -17
c36 -33 11 -103 -37 -103 -35 0 -58 24 -58 60 0 54 55 79 95 43z m-2842 -23
c0 -5 -4 -10 -10 -10 -5 0 -10 5 -10 10 0 6 5 10 10 10 6 0 10 -4 10 -10z
m3868 -27 c-2 -10 -10 -18 -18 -18 -8 0 -16 8 -18 18 -2 12 3 17 18 17 15 0
20 -5 18 -17z m727 -38 c0 -30 -39 -27 -43 3 -3 20 0 23 20 20 15 -2 23 -10
23 -23z m2665 -5 c0 -5 -4 -10 -10 -10 -5 0 -10 5 -10 10 0 6 5 10 10 10 6 0
10 -4 10 -10z m-9840 -15 c0 -8 -4 -15 -10 -15 -5 0 -10 7 -10 15 0 8 5 15 10
15 6 0 10 -7 10 -15z m9552 0 c0 -5 -5 -11 -11 -13 -6 -2 -11 4 -11 13 0 9 5
15 11 13 6 -2 11 -8 11 -13z m-10552 -5 c0 -5 -4 -10 -10 -10 -5 0 -10 5 -10
10 0 6 5 10 10 10 6 0 10 -4 10 -10z m8615 -50 c3 -5 -1 -10 -9 -10 -9 0 -16
5 -16 10 0 6 4 10 9 10 6 0 13 -4 16 -10z m5645 0 c0 -5 -4 -10 -10 -10 -5 0
-10 5 -10 10 0 6 5 10 10 10 6 0 10 -4 10 -10z m-3900 -31 c0 -25 -33 -22 -38
4 -2 12 3 17 17 17 15 0 21 -6 21 -21z m5750 -9 c0 -5 -4 -10 -10 -10 -5 0
-10 5 -10 10 0 6 5 10 10 10 6 0 10 -4 10 -10z"/>
</g>
</svg>
