<?xml version="1.0" encoding="UTF-8"?>
<!DOCTYPE svg PUBLIC "-//W3C//DTD SVG 1.1//EN" "http://www.w3.org/Graphics/SVG/1.1/DTD/svg11.dtd">
<svg xmlns="http://www.w3.org/2000/svg" version="1.1" width="670px" height="490px" style="shape-rendering:geometricPrecision; text-rendering:geometricPrecision; image-rendering:optimizeQuality; fill-rule:evenodd; clip-rule:evenodd" xmlns:xlink="http://www.w3.org/1999/xlink">
<g><path style="opacity:0.063" fill="#5f6f8c" d="M 288.5,84.5 C 289.525,84.8966 289.692,85.5632 289,86.5C 288.536,85.9056 288.369,85.2389 288.5,84.5 Z"/></g>
<g><path style="opacity:0.498" fill="#3e4553" d="M 288.5,87.5 C 289.289,87.7828 289.956,88.2828 290.5,89C 289.184,89.5281 288.517,89.0281 288.5,87.5 Z"/></g>
<g><path style="opacity:1" fill="#9fa0a1" d="M 354.5,69.5 C 356.663,85.797 358.33,102.13 359.5,118.5C 358.5,118.5 357.5,118.5 356.5,118.5C 356.986,128.513 357.653,138.513 358.5,148.5C 360.553,148.402 362.22,149.069 363.5,150.5C 365.381,159.398 365.881,168.398 365,177.5C 363.421,181.477 361.588,185.144 359.5,188.5C 358.167,188.5 356.833,188.5 355.5,188.5C 355.413,185.402 355.913,185.068 357,187.5C 356.879,184.079 358.212,181.412 361,179.5C 361.5,170.506 361.666,161.506 361.5,152.5C 359.774,152.815 358.107,152.981 356.5,153C 356.088,151.436 355.755,149.936 355.5,148.5C 356.161,146.866 356.494,145.033 356.5,143C 355.695,134.505 355.028,126.005 354.5,117.5C 349.5,117.5 344.5,117.5 339.5,117.5C 334.167,117.5 328.833,117.5 323.5,117.5C 318.167,117.5 312.833,117.5 307.5,117.5C 317.659,116.67 327.992,116.17 338.5,116C 332.167,115.667 325.833,115.333 319.5,115C 329.161,114.5 338.828,114.334 348.5,114.5C 348.281,113.325 348.614,112.325 349.5,111.5C 350.347,113.061 350.014,114.561 348.5,116C 351.426,116.218 354.26,116.718 357,117.5C 356.284,101.123 355.117,84.7896 353.5,68.5C 336.658,68.8298 319.992,68.4965 303.5,67.5C 316.569,66.8249 329.735,66.1582 343,65.5C 346.411,66.2931 349.911,66.7931 353.5,67C 354.252,67.6708 354.586,68.5041 354.5,69.5 Z"/></g>
<g><path style="opacity:1" fill="#202021" d="M 307.5,117.5 C 312.833,117.5 318.167,117.5 323.5,117.5C 324.124,127.263 323.457,136.763 321.5,146C 326.823,146.499 332.156,146.666 337.5,146.5C 338.1,137.303 337.433,128.303 335.5,119.5C 336.949,118.828 338.282,118.161 339.5,117.5C 344.5,117.5 349.5,117.5 354.5,117.5C 355.028,126.005 355.695,134.505 356.5,143C 356.494,145.033 356.161,146.866 355.5,148.5C 335.822,147.239 316.155,147.239 296.5,148.5C 296.963,138.152 297.629,127.819 298.5,117.5C 301.5,117.5 304.5,117.5 307.5,117.5 Z"/></g>
<g><path style="opacity:1" fill="#030202" d="M 323.5,117.5 C 328.833,117.5 334.167,117.5 339.5,117.5C 338.282,118.161 336.949,118.828 335.5,119.5C 337.433,128.303 338.1,137.303 337.5,146.5C 332.156,146.666 326.823,146.499 321.5,146C 323.457,136.763 324.124,127.263 323.5,117.5 Z"/></g>
<g><path style="opacity:1" fill="#0e0e0d" d="M 359.5,118.5 C 361.136,119.749 362.303,121.416 363,123.5C 365.554,133.707 366.887,144.04 367,154.5C 366.051,152.907 364.885,151.574 363.5,150.5C 362.22,149.069 360.553,148.402 358.5,148.5C 357.653,138.513 356.986,128.513 356.5,118.5C 357.5,118.5 358.5,118.5 359.5,118.5 Z"/></g>
<g><path style="opacity:1" fill="#565758" d="M 354.5,69.5 C 356.379,69.3932 356.712,69.8932 355.5,71C 359.81,86.5782 362.977,102.412 365,118.5C 365.333,119.5 365.667,120.5 366,121.5C 366.333,121.167 366.667,120.833 367,120.5C 367.333,125.167 367.667,129.833 368,134.5C 368.878,138.446 370.045,142.279 371.5,146C 371.167,146.333 370.833,146.667 370.5,147C 372.3,156.947 374.466,166.78 377,176.5C 377.498,179.482 377.665,182.482 377.5,185.5C 374.552,185.777 371.719,185.444 369,184.5C 368.283,185.044 367.783,185.711 367.5,186.5C 366.173,187.8 364.84,189.133 363.5,190.5C 361.974,190.006 360.641,189.339 359.5,188.5C 361.588,185.144 363.421,181.477 365,177.5C 365.881,168.398 365.381,159.398 363.5,150.5C 364.885,151.574 366.051,152.907 367,154.5C 366.887,144.04 365.554,133.707 363,123.5C 362.303,121.416 361.136,119.749 359.5,118.5C 358.33,102.13 356.663,85.797 354.5,69.5 Z"/></g>
<g><path style="opacity:0.063" fill="#4e5f6e" d="M 224.5,169.5 C 225.525,169.897 225.692,170.563 225,171.5C 224.536,170.906 224.369,170.239 224.5,169.5 Z"/></g>
<g><path style="opacity:0.251" fill="#394352" d="M 245.5,176.5 C 247.337,176.639 247.67,177.306 246.5,178.5C 245.702,178.043 245.369,177.376 245.5,176.5 Z"/></g>
<g><path style="opacity:0.373" fill="#313843" d="M 272.5,178.5 C 271.475,178.103 271.308,177.437 272,176.5C 272.464,177.094 272.631,177.761 272.5,178.5 Z"/></g>
<g><path style="opacity:1" fill="#696969" d="M 343.5,177.5 C 343.151,184.726 342.151,191.726 340.5,198.5C 340.666,192.158 340.5,185.825 340,179.5C 339.827,185.348 339.327,191.015 338.5,196.5C 338.5,190.5 338.5,184.5 338.5,178.5C 336.833,178.5 335.167,178.5 333.5,178.5C 336.028,177.834 338.694,177.168 341.5,176.5C 338.681,176.258 335.681,176.258 332.5,176.5C 331.83,173.41 332.997,171.743 336,171.5C 339.793,172.016 342.293,174.016 343.5,177.5 Z"/></g>
<g><path style="opacity:0.063" fill="#4e5f6e" d="M 424.5,180.5 C 425.833,181.167 425.833,181.167 424.5,180.5 Z"/></g>
<g><path style="opacity:1" fill="#141414" d="M 305.5,169.5 C 310.619,168.897 315.285,169.564 319.5,171.5C 316.14,171.616 312.807,171.949 309.5,172.5C 308.672,180.149 308.005,187.815 307.5,195.5C 302.519,196.398 298.519,194.898 295.5,191C 293.618,190.802 291.952,190.302 290.5,189.5C 295.305,188.513 300.305,188.179 305.5,188.5C 305.5,182.167 305.5,175.833 305.5,169.5 Z"/></g>
<g><path style="opacity:1" fill="#363636" d="M 319.5,171.5 C 318.081,172.451 316.415,172.784 314.5,172.5C 314.5,173.5 314.5,174.5 314.5,175.5C 316.167,175.5 317.833,175.5 319.5,175.5C 319.5,176.5 319.5,177.5 319.5,178.5C 317.5,178.5 315.5,178.5 313.5,178.5C 313.5,184.5 313.5,190.5 313.5,196.5C 312.417,196.539 311.417,196.873 310.5,197.5C 309.735,196.388 308.735,195.721 307.5,195.5C 308.005,187.815 308.672,180.149 309.5,172.5C 312.807,171.949 316.14,171.616 319.5,171.5 Z"/></g>
<g><path style="opacity:1" fill="#111111" d="M 367.5,186.5 C 367.5,189.833 367.5,193.167 367.5,196.5C 367.5,197.167 367.5,197.833 367.5,198.5C 363.5,198.5 359.5,198.5 355.5,198.5C 355.5,195.167 355.5,191.833 355.5,188.5C 356.833,188.5 358.167,188.5 359.5,188.5C 360.641,189.339 361.974,190.006 363.5,190.5C 364.84,189.133 366.173,187.8 367.5,186.5 Z"/></g>
<g><path style="opacity:1" fill="#414141" d="M 322.5,163.5 C 323.497,163.47 324.164,163.97 324.5,165C 325.273,209.167 325.273,253.334 324.5,297.5C 324.218,252.827 323.551,208.16 322.5,163.5 Z"/></g>
<g><path style="opacity:1" fill="#707070" d="M 322.5,163.5 C 324.607,162.532 326.941,162.198 329.5,162.5C 329.169,186.339 329.502,210.006 330.5,233.5C 330.823,239.69 330.49,245.69 329.5,251.5C 329.666,247.154 329.499,242.821 329,238.5C 328.66,259.507 328.16,280.507 327.5,301.5C 326.5,301.5 325.5,301.5 324.5,301.5C 324.5,300.167 324.5,298.833 324.5,297.5C 325.273,253.334 325.273,209.167 324.5,165C 324.164,163.97 323.497,163.47 322.5,163.5 Z"/></g>
<g><path style="opacity:1" fill="#6c6d70" d="M 242.5,173.5 C 244.656,175.86 244.99,178.526 243.5,181.5C 244.315,186.412 245.315,191.245 246.5,196C 255.515,196.55 264.349,197.05 273,197.5C 275.792,195.938 278.625,195.605 281.5,196.5C 283.373,196.518 283.706,196.018 282.5,195C 283.191,193.933 283.691,192.766 284,191.5C 284.333,192.5 284.667,193.5 285,194.5C 285.564,192.438 285.064,190.605 283.5,189C 283.743,188.098 284.077,187.265 284.5,186.5C 286.5,187.5 288.5,188.5 290.5,189.5C 291.952,190.302 293.618,190.802 295.5,191C 298.519,194.898 302.519,196.398 307.5,195.5C 308.735,195.721 309.735,196.388 310.5,197.5C 311.417,196.873 312.417,196.539 313.5,196.5C 315.604,196.201 317.604,196.534 319.5,197.5C 312.189,198.665 304.856,198.831 297.5,198C 297,197.5 296.5,197 296,196.5C 292.397,197.135 288.897,197.802 285.5,198.5C 282.167,198.5 278.833,198.5 275.5,198.5C 274.833,198.833 274.167,199.167 273.5,199.5C 271.738,199.643 270.071,199.309 268.5,198.5C 266.6,200.616 264.267,201.949 261.5,202.5C 262.343,200.827 263.676,199.66 265.5,199C 257.255,198.817 249.088,198.317 241,197.5C 240.178,189.313 240.678,181.313 242.5,173.5 Z"/></g>
<g><path style="opacity:1" fill="#7d7d7d" d="M 347.5,172.5 C 347.5,177.833 347.5,183.167 347.5,188.5C 350.167,188.5 352.833,188.5 355.5,188.5C 355.5,191.833 355.5,195.167 355.5,198.5C 351.298,198.817 347.298,198.483 343.5,197.5C 344.822,194.232 345.489,190.565 345.5,186.5C 345.333,182.833 345.167,179.167 345,175.5C 344.308,174.975 343.808,174.308 343.5,173.5C 344.861,173.212 346.194,172.879 347.5,172.5 Z"/></g>
<g><path style="opacity:1" fill="#aaaaaa" d="M 343.5,177.5 C 343.5,184.167 343.5,190.833 343.5,197.5C 347.298,198.483 351.298,198.817 355.5,198.5C 359.5,198.5 363.5,198.5 367.5,198.5C 367.5,198.833 367.5,199.167 367.5,199.5C 366.475,202.974 365.808,206.64 365.5,210.5C 361.116,210.174 356.783,210.508 352.5,211.5C 353.86,216.124 353.526,220.624 351.5,225C 352.309,230.417 352.809,235.917 353,241.5C 353.333,236.167 353.667,230.833 354,225.5C 354.499,231.157 354.666,236.824 354.5,242.5C 352.5,242.5 350.5,242.5 348.5,242.5C 348.5,236.833 348.5,231.167 348.5,225.5C 343.833,225.5 339.167,225.5 334.5,225.5C 334.193,231.093 334.527,236.593 335.5,242C 334.906,242.464 334.239,242.631 333.5,242.5C 333.5,227.833 333.5,213.167 333.5,198.5C 335.833,198.5 338.167,198.5 340.5,198.5C 342.151,191.726 343.151,184.726 343.5,177.5 Z"/></g>
<g><path style="opacity:0.184" fill="#444a5c" d="M 438.5,198.5 C 439.525,198.897 439.692,199.563 439,200.5C 438.536,199.906 438.369,199.239 438.5,198.5 Z"/></g>
<g><path style="opacity:1" fill="#aaaaaa" d="M 305.5,169.5 C 310.305,168.513 315.305,168.179 320.5,168.5C 320.348,187.504 320.015,206.504 319.5,225.5C 314.833,225.5 310.167,225.5 305.5,225.5C 305.5,231.167 305.5,236.833 305.5,242.5C 302.15,242.335 298.817,242.502 295.5,243C 303.493,243.5 311.493,243.666 319.5,243.5C 319.5,245.833 319.5,248.167 319.5,250.5C 311.64,250.832 303.64,250.999 295.5,251C 298.033,253.084 298.033,255.084 295.5,257C 296.935,303.09 297.601,349.257 297.5,395.5C 293.774,395.823 290.107,395.489 286.5,394.5C 287.496,329.875 287.83,265.208 287.5,200.5C 283.551,200.307 283.551,199.807 287.5,199C 286.906,198.536 286.239,198.369 285.5,198.5C 288.897,197.802 292.397,197.135 296,196.5C 296.5,197 297,197.5 297.5,198C 304.856,198.831 312.189,198.665 319.5,197.5C 317.604,196.534 315.604,196.201 313.5,196.5C 313.5,190.5 313.5,184.5 313.5,178.5C 315.5,178.5 317.5,178.5 319.5,178.5C 319.5,177.5 319.5,176.5 319.5,175.5C 317.833,175.5 316.167,175.5 314.5,175.5C 314.5,174.5 314.5,173.5 314.5,172.5C 316.415,172.784 318.081,172.451 319.5,171.5C 315.285,169.564 310.619,168.897 305.5,169.5 Z"/></g>
<g><path style="opacity:1" fill="#808184" d="M 430.5,197.5 C 429.942,198.79 428.942,199.623 427.5,200C 428.46,203.73 428.793,207.563 428.5,211.5C 429.552,211.351 430.552,211.517 431.5,212C 429.527,212.495 427.527,212.662 425.5,212.5C 424.737,211.732 423.737,211.232 422.5,211C 422.833,210.667 423.167,210.333 423.5,210C 421.65,204.8 420.65,199.3 420.5,193.5C 421.217,190.268 422.217,187.101 423.5,184C 420.903,182.246 418.069,181.079 415,180.5C 414.192,176.973 414.359,173.64 415.5,170.5C 415.264,173.226 416.097,175.559 418,177.5C 418.419,175.32 418.252,173.154 417.5,171C 417.898,169.101 418.898,167.601 420.5,166.5C 421.732,170.061 423.399,173.395 425.5,176.5C 424.359,177.425 424.359,178.259 425.5,179C 424.572,179.388 423.905,180.055 423.5,181C 425.918,185.771 427.585,190.771 428.5,196C 428.167,196.333 427.833,196.667 427.5,197C 428.448,197.483 429.448,197.649 430.5,197.5 Z"/></g>
<g><path style="opacity:1" fill="#8a8a8a" d="M 367.5,199.5 C 368.725,200.152 369.392,201.319 369.5,203C 369.174,205.663 368.341,208.163 367,210.5C 366.69,230.524 365.856,250.524 364.5,270.5C 360.48,265.132 357.813,259.132 356.5,252.5C 356.043,251.702 355.376,251.369 354.5,251.5C 354.918,250.778 355.584,250.278 356.5,250C 351.67,245.347 346.003,244.18 339.5,246.5C 339.5,245.5 339.5,244.5 339.5,243.5C 337.5,243.5 335.5,243.5 333.5,243.5C 333.5,243.167 333.5,242.833 333.5,242.5C 334.239,242.631 334.906,242.464 335.5,242C 334.527,236.593 334.193,231.093 334.5,225.5C 339.167,225.5 343.833,225.5 348.5,225.5C 348.5,231.167 348.5,236.833 348.5,242.5C 350.5,242.5 352.5,242.5 354.5,242.5C 354.666,236.824 354.499,231.157 354,225.5C 353.667,230.833 353.333,236.167 353,241.5C 352.809,235.917 352.309,230.417 351.5,225C 353.526,220.624 353.86,216.124 352.5,211.5C 356.783,210.508 361.116,210.174 365.5,210.5C 365.808,206.64 366.475,202.974 367.5,199.5 Z"/></g>
<g><path style="opacity:1" fill="#949495" d="M 415.5,170.5 C 414.359,173.64 414.192,176.973 415,180.5C 418.069,181.079 420.903,182.246 423.5,184C 422.217,187.101 421.217,190.268 420.5,193.5C 420.65,199.3 421.65,204.8 423.5,210C 423.167,210.333 422.833,210.667 422.5,211C 423.737,211.232 424.737,211.732 425.5,212.5C 422.753,212.187 420.086,212.52 417.5,213.5C 420.628,214.309 423.294,215.809 425.5,218C 425.216,219.956 425.216,222.123 425.5,224.5C 422.167,224.5 418.833,224.5 415.5,224.5C 415.5,225.833 415.5,227.167 415.5,228.5C 419.514,228.334 423.514,228.501 427.5,229C 426.697,234.113 426.031,239.28 425.5,244.5C 424.5,244.5 423.5,244.5 422.5,244.5C 421.35,241.538 419.683,238.871 417.5,236.5C 416.548,234.955 416.215,233.288 416.5,231.5C 412.833,231.5 409.167,231.5 405.5,231.5C 405.607,225.12 405.107,218.787 404,212.5C 400.961,210.129 398.127,207.462 395.5,204.5C 394.077,201.786 393.743,199.119 394.5,196.5C 398.833,196.5 403.167,196.5 407.5,196.5C 407.863,192.895 407.863,189.395 407.5,186C 409.589,183.385 409.922,180.551 408.5,177.5C 409.822,173.523 411.655,169.856 414,166.5C 414.791,167.745 415.291,169.078 415.5,170.5 Z"/></g>
<g><path style="opacity:1" fill="#7a7f89" d="M 218.5,217.5 C 219.807,219.223 219.807,221.057 218.5,223C 209.172,226.166 199.839,229.332 190.5,232.5C 189.893,232.376 189.56,232.043 189.5,231.5C 196.513,229.52 203.513,226.52 210.5,222.5C 211.086,222.709 211.586,223.043 212,223.5C 214.071,222.475 216.238,221.642 218.5,221C 217.316,219.855 217.316,218.688 218.5,217.5 Z"/></g>
<g><path style="opacity:0.188" fill="#636f89" d="M 478.5,234.5 C 479.833,235.167 479.833,235.167 478.5,234.5 Z"/></g>
<g><path style="opacity:0.125" fill="#465766" d="M 135.5,246.5 C 136.833,247.167 136.833,247.167 135.5,246.5 Z"/></g>
<g><path style="opacity:1" fill="#b3b3b3" d="M 273.5,199.5 C 274.091,207.704 273.424,215.704 271.5,223.5C 273.276,224.315 273.943,225.482 273.5,227C 272.833,227.333 272.167,227.667 271.5,228C 272.833,228.667 272.833,229.333 271.5,230C 272.448,230.483 273.448,230.649 274.5,230.5C 274.571,233.024 273.571,235.024 271.5,236.5C 274.028,237.816 274.028,238.983 271.5,240C 272.167,240.333 272.833,240.667 273.5,241C 271.834,243.48 271.001,246.313 271,249.5C 270.667,262.167 270.333,274.833 270,287.5C 268.486,289.766 266.319,290.932 263.5,291C 267.852,291.419 268.185,292.086 264.5,293C 266.723,293.652 267.89,295.152 268,297.5C 268.202,295.744 268.702,294.078 269.5,292.5C 270.863,293.879 271.863,293.713 272.5,292C 273.11,285.689 273.776,279.523 274.5,273.5C 274.273,281.177 274.939,288.511 276.5,295.5C 274.641,295.888 272.641,295.888 270.5,295.5C 270.161,316.849 269.161,337.849 267.5,358.5C 266.589,355.698 264.923,353.365 262.5,351.5C 256.653,347.409 250.987,343.076 245.5,338.5C 246.325,311.209 246.825,283.876 247,256.5C 250.973,252.682 255.306,249.349 260,246.5C 260.823,231.925 260.656,217.425 259.5,203C 260.094,202.536 260.761,202.369 261.5,202.5C 264.267,201.949 266.6,200.616 268.5,198.5C 270.071,199.309 271.738,199.643 273.5,199.5 Z"/></g>
<g><path style="opacity:1" fill="#c1c2c2" d="M 228.5,180.5 C 231.421,181.372 234.421,181.372 237.5,180.5C 237.456,191.408 236.456,202.075 234.5,212.5C 227.431,212.743 227.097,213.577 233.5,215C 232.833,215.333 232.167,215.667 231.5,216C 232.833,217 234.167,218 235.5,219C 231.148,219.419 230.815,220.086 234.5,221C 231.332,221.582 230.999,222.582 233.5,224C 215.163,225.122 215.496,226.122 234.5,227C 230.815,227.914 231.148,228.581 235.5,229C 234.167,229.333 232.833,229.667 231.5,230C 232.448,230.483 233.448,230.649 234.5,230.5C 235.057,239.041 234.057,247.374 231.5,255.5C 230.548,253.955 230.215,252.288 230.5,250.5C 228.5,250.5 226.5,250.5 224.5,250.5C 224.5,252.833 224.5,255.167 224.5,257.5C 228.83,258.323 230.163,260.823 228.5,265C 230.559,270.705 231.892,276.705 232.5,283C 231.689,298.468 231.189,313.968 231,329.5C 228.371,329.928 226.038,330.928 224,332.5C 222.599,330.808 220.766,330.141 218.5,330.5C 218.663,332.857 218.497,335.19 218,337.5C 217.086,336.346 216.253,336.513 215.5,338C 219.951,338.13 224.284,338.796 228.5,340C 227.672,340.915 226.672,341.581 225.5,342C 226.672,342.419 227.672,343.085 228.5,344C 228.342,347.288 228.342,350.788 228.5,354.5C 227.167,354.5 225.833,354.5 224.5,354.5C 224.192,356.924 224.526,359.257 225.5,361.5C 226.598,357.639 227.431,357.639 228,361.5C 229.307,362.772 230.807,363.772 232.5,364.5C 232.023,365.478 231.357,366.311 230.5,367C 231.831,368.659 233.165,370.326 234.5,372C 234.095,372.945 233.428,373.612 232.5,374C 233.337,375.011 233.67,376.178 233.5,377.5C 232.448,377.351 231.448,377.517 230.5,378C 230.167,379 229.833,380 229.5,381C 227.084,382.063 224.584,382.896 222,383.5C 219.866,381.713 219.033,379.38 219.5,376.5C 215.5,376.5 211.5,376.5 207.5,376.5C 144.409,377.394 82.0754,377.394 20.5,376.5C 20.5,347.5 20.5,318.5 20.5,289.5C 25.7774,288.544 30.9441,286.544 36,283.5C 36.3333,283.833 36.6667,284.167 37,284.5C 37.5,283.333 38.3333,282.5 39.5,282C 51.138,279.654 61.638,276.154 71,271.5C 71.3333,271.833 71.6667,272.167 72,272.5C 73.0674,271.809 74.2341,271.309 75.5,271C 74.3044,270.346 74.3044,269.846 75.5,269.5C 77.3775,269.623 79.2109,269.623 81,269.5C 83.3654,268.932 85.6987,267.599 88,265.5C 92.2881,265.723 96.2881,264.389 100,261.5C 101.364,262.258 102.531,261.758 103.5,260C 106.687,259.999 109.52,259.166 112,257.5C 112.333,257.833 112.667,258.167 113,258.5C 115.071,257.475 117.238,256.642 119.5,256C 118.346,255.086 118.513,254.253 120,253.5C 120.308,254.308 120.808,254.975 121.5,255.5C 138.277,248.548 155.777,242.215 174,236.5C 178.8,234.848 183.967,233.181 189.5,231.5C 189.56,232.043 189.893,232.376 190.5,232.5C 199.839,229.332 209.172,226.166 218.5,223C 219.807,221.057 219.807,219.223 218.5,217.5C 217.834,211.53 217.167,205.53 216.5,199.5C 217.917,199.141 219.25,197.975 220.5,196C 222.112,195.28 223.612,195.446 225,196.5C 225.886,190.971 227.053,185.638 228.5,180.5 Z"/></g>
<g><path style="opacity:1" fill="#666666" d="M 433.5,222.5 C 433.833,222.5 434.167,222.5 434.5,222.5C 434.443,223.609 434.11,224.609 433.5,225.5C 434.261,232.452 434.761,239.452 435,246.5C 435.779,245.272 436.779,244.272 438,243.5C 441.876,246.483 445.376,246.15 448.5,242.5C 452.342,243.939 456.009,245.772 459.5,248C 458.167,248.333 456.833,248.667 455.5,249C 460.918,250.864 466.252,253.031 471.5,255.5C 468.692,256.027 466.025,256.027 463.5,255.5C 465.412,257.99 467.745,259.99 470.5,261.5C 471.386,262.325 471.719,263.325 471.5,264.5C 475.5,264.833 475.5,265.167 471.5,265.5C 471.351,266.552 471.517,267.552 472,268.5C 474.428,269.63 476.595,271.13 478.5,273C 477.062,273.219 475.729,273.719 474.5,274.5C 476.003,276.422 478.003,277.588 480.5,278C 483.259,280.484 482.926,281.65 479.5,281.5C 479.351,282.552 479.517,283.552 480,284.5C 482.428,285.63 484.595,287.13 486.5,289C 484.679,291.456 484.012,294.289 484.5,297.5C 485.5,297.5 486.5,297.5 487.5,297.5C 487.5,300.833 487.5,304.167 487.5,307.5C 519.496,309.335 519.496,311.502 487.5,314C 490.096,315.136 492.763,315.969 495.5,316.5C 495.5,318.167 495.5,319.833 495.5,321.5C 500.844,321.334 506.177,321.501 511.5,322C 502.504,322.714 493.504,323.381 484.5,324C 488.147,324.774 491.814,325.441 495.5,326C 493.048,326.29 490.715,326.956 488.5,328C 489.833,328.333 491.167,328.667 492.5,329C 491.552,329.483 490.552,329.649 489.5,329.5C 489.5,332.167 489.5,334.833 489.5,337.5C 487.833,337.5 486.167,337.5 484.5,337.5C 484.79,342.512 483.457,347.012 480.5,351C 481.953,352.713 481.786,354.213 480,355.5C 479.667,354.833 479.333,354.167 479,353.5C 474.766,357.902 469.599,360.235 463.5,360.5C 482.038,360.978 501.705,360.978 522.5,360.5C 520.711,355.67 520.545,350.67 522,345.5C 523,356.167 524,356.167 525,345.5C 525.849,352.576 527.016,359.576 528.5,366.5C 510.777,366.055 493.111,366.555 475.5,368C 492.075,369.305 508.742,369.972 525.5,370C 507.5,370.333 489.5,370.667 471.5,371C 484.833,371.333 498.167,371.667 511.5,372C 490.163,372.448 468.83,372.948 447.5,373.5C 446.521,374.765 445.521,376.099 444.5,377.5C 441.899,374.999 439.399,374.999 437,377.5C 434.968,375.232 433.635,375.898 433,379.5C 432.346,378.304 431.846,378.304 431.5,379.5C 432.107,388.564 427.774,393.231 418.5,393.5C 417.5,393.5 416.5,393.5 415.5,393.5C 415.66,391.801 415.494,390.134 415,388.5C 412.854,387.624 411.021,386.291 409.5,384.5C 396.053,382.952 382.719,383.619 369.5,386.5C 367.711,389.556 367.044,392.889 367.5,396.5C 365.362,397.808 363.362,397.475 361.5,395.5C 358.103,373.66 356.603,351.66 357,329.5C 354.336,306.875 352.336,284.209 351,261.5C 350.826,266.684 350.326,271.684 349.5,276.5C 349.334,270.824 349.501,265.157 350,259.5C 351.259,256.644 352.759,253.977 354.5,251.5C 355.376,251.369 356.043,251.702 356.5,252.5C 357.813,259.132 360.48,265.132 364.5,270.5C 365.856,250.524 366.69,230.524 367,210.5C 368.341,208.163 369.174,205.663 369.5,203C 369.392,201.319 368.725,200.152 367.5,199.5C 367.5,199.167 367.5,198.833 367.5,198.5C 367.5,197.833 367.5,197.167 367.5,196.5C 368.391,197.11 369.391,197.443 370.5,197.5C 372.208,233.355 373.208,269.355 373.5,305.5C 372.583,329.49 372.25,353.49 372.5,377.5C 373.5,377.5 374.5,377.5 375.5,377.5C 375.36,379.124 376.027,380.29 377.5,381C 382.167,381.667 386.833,381.667 391.5,381C 390.151,380.228 389.318,379.061 389,377.5C 388.333,373.833 388.333,370.167 389,366.5C 394.691,359.644 400.191,352.644 405.5,345.5C 406.429,344.311 406.762,342.978 406.5,341.5C 400.487,344.654 394.821,348.487 389.5,353C 387.104,353.866 386.437,353.366 387.5,351.5C 391.39,348.729 395.057,345.729 398.5,342.5C 397.635,341.417 396.635,341.251 395.5,342C 392.872,345.673 389.538,348.006 385.5,349C 386.146,343.552 386.812,338.052 387.5,332.5C 390.72,326.668 392.886,320.335 394,313.5C 396.224,292.817 397.89,272.151 399,251.5C 400.171,253.616 401.671,254.282 403.5,253.5C 402.149,251.981 400.649,250.648 399,249.5C 398.276,238.601 396.276,227.935 393,217.5C 392.667,213.167 392.333,208.833 392,204.5C 392.071,211.043 391.238,217.376 389.5,223.5C 390.167,224.167 390.833,224.833 391.5,225.5C 390.167,226.5 390.167,227.5 391.5,228.5C 387.217,229.492 382.884,229.826 378.5,229.5C 378.5,227.833 378.5,226.167 378.5,224.5C 385.167,223.833 385.167,223.167 378.5,222.5C 378.666,215.159 378.5,207.826 378,200.5C 377.283,199.956 376.783,199.289 376.5,198.5C 378.138,197.841 379.805,197.174 381.5,196.5C 382.541,198.991 383.374,198.991 384,196.5C 384.667,197.167 385.333,197.833 386,198.5C 388.826,197.787 391.66,197.12 394.5,196.5C 393.743,199.119 394.077,201.786 395.5,204.5C 398.127,207.462 400.961,210.129 404,212.5C 405.107,218.787 405.607,225.12 405.5,231.5C 409.167,231.5 412.833,231.5 416.5,231.5C 416.215,233.288 416.548,234.955 417.5,236.5C 419.683,238.871 421.35,241.538 422.5,244.5C 423.5,244.5 424.5,244.5 425.5,244.5C 426.031,239.28 426.697,234.113 427.5,229C 423.514,228.501 419.514,228.334 415.5,228.5C 415.5,227.167 415.5,225.833 415.5,224.5C 418.833,224.5 422.167,224.5 425.5,224.5C 425.216,222.123 425.216,219.956 425.5,218C 423.294,215.809 420.628,214.309 417.5,213.5C 420.086,212.52 422.753,212.187 425.5,212.5C 427.527,212.662 429.527,212.495 431.5,212C 430.552,211.517 429.552,211.351 428.5,211.5C 428.793,207.563 428.46,203.73 427.5,200C 428.942,199.623 429.942,198.79 430.5,197.5C 431.59,195.237 432.923,195.07 434.5,197C 433.833,197.333 433.167,197.667 432.5,198C 433.624,198.249 434.624,198.749 435.5,199.5C 434.268,202.3 433.601,205.3 433.5,208.5C 434.129,213.528 434.129,218.195 433.5,222.5 Z M 433.5,222.5 C 433.44,223.043 433.107,223.376 432.5,223.5C 431.417,222.635 431.251,221.635 432,220.5C 432.278,221.416 432.778,222.082 433.5,222.5 Z"/></g>
<g><path style="opacity:1" fill="#545454" d="M 370.5,197.5 C 372.872,197.178 374.872,197.511 376.5,198.5C 376.783,199.289 377.283,199.956 378,200.5C 378.5,207.826 378.666,215.159 378.5,222.5C 385.167,223.167 385.167,223.833 378.5,224.5C 378.5,226.167 378.5,227.833 378.5,229.5C 382.884,229.826 387.217,229.492 391.5,228.5C 390.167,227.5 390.167,226.5 391.5,225.5C 390.833,224.833 390.167,224.167 389.5,223.5C 391.238,217.376 392.071,211.043 392,204.5C 392.333,208.833 392.667,213.167 393,217.5C 396.276,227.935 398.276,238.601 399,249.5C 400.649,250.648 402.149,251.981 403.5,253.5C 401.671,254.282 400.171,253.616 399,251.5C 397.89,272.151 396.224,292.817 394,313.5C 392.886,320.335 390.72,326.668 387.5,332.5C 386.812,338.052 386.146,343.552 385.5,349C 389.538,348.006 392.872,345.673 395.5,342C 396.635,341.251 397.635,341.417 398.5,342.5C 395.057,345.729 391.39,348.729 387.5,351.5C 386.437,353.366 387.104,353.866 389.5,353C 394.821,348.487 400.487,344.654 406.5,341.5C 406.762,342.978 406.429,344.311 405.5,345.5C 400.191,352.644 394.691,359.644 389,366.5C 388.333,370.167 388.333,373.833 389,377.5C 389.318,379.061 390.151,380.228 391.5,381C 386.833,381.667 382.167,381.667 377.5,381C 376.027,380.29 375.36,379.124 375.5,377.5C 374.5,377.5 373.5,377.5 372.5,377.5C 372.25,353.49 372.583,329.49 373.5,305.5C 373.208,269.355 372.208,233.355 370.5,197.5 Z"/></g>
<g><path style="opacity:1" fill="#7d7d7e" d="M 434.5,222.5 C 443.909,225.035 453.242,227.868 462.5,231C 463.056,231.383 463.389,231.883 463.5,232.5C 461.708,233.309 459.708,233.809 457.5,234C 458.64,235.973 459.973,237.807 461.5,239.5C 465.991,241.255 470.658,242.588 475.5,243.5C 475.351,244.552 475.517,245.552 476,246.5C 476.667,247.833 477.333,247.833 478,246.5C 478.374,247.416 478.874,248.25 479.5,249C 485.104,249.698 490.437,250.531 495.5,251.5C 496.641,253.808 498.308,255.641 500.5,257C 499.5,257.333 498.5,257.667 497.5,258C 501.14,261.677 505.14,262.51 509.5,260.5C 511.064,261.769 512.731,262.936 514.5,264C 513.5,264.333 512.5,264.667 511.5,265C 514.272,265.526 516.938,266.359 519.5,267.5C 518.5,268.167 517.5,268.833 516.5,269.5C 518.819,270.987 520.985,272.654 523,274.5C 523.333,274.167 523.667,273.833 524,273.5C 525.684,279.458 527.851,279.791 530.5,274.5C 529.737,273.281 528.737,272.281 527.5,271.5C 528,271.167 528.5,270.833 529,270.5C 531.111,271.472 533.278,272.305 535.5,273C 533.335,274.161 532.335,275.994 532.5,278.5C 533.082,282.155 533.582,285.822 534,289.5C 534.333,286.833 534.667,284.167 535,281.5C 535.667,282.167 536.333,282.833 537,283.5C 537.333,290.833 537.667,298.167 538,305.5C 538.856,294.893 540.022,294.893 541.5,305.5C 542.818,294.915 543.485,294.915 543.5,305.5C 554.167,305.833 554.167,306.167 543.5,306.5C 543.5,307.5 543.5,308.5 543.5,309.5C 548.833,309.833 554.167,310.167 559.5,310.5C 559.351,309.448 559.517,308.448 560,307.5C 561.128,309.345 561.628,311.345 561.5,313.5C 555.321,313.217 549.321,314.05 543.5,316C 549.022,317.566 554.522,317.733 560,316.5C 560.333,317.167 560.667,317.833 561,318.5C 561.167,332.845 561.667,347.178 562.5,361.5C 563.684,345.184 563.684,329.018 562.5,313C 563.227,311.601 563.727,310.101 564,308.5C 564.168,318.184 564.668,327.851 565.5,337.5C 566.498,329.528 566.831,321.528 566.5,313.5C 567.833,313.5 569.167,313.5 570.5,313.5C 570.333,330.17 570.5,346.837 571,363.5C 575.737,364.469 580.57,364.803 585.5,364.5C 580.099,365.825 574.599,365.825 569,364.5C 568.5,365.5 568,366.5 567.5,367.5C 573.69,367.834 580.023,368.334 586.5,369C 588.883,369.065 589.55,369.898 588.5,371.5C 581.189,372.665 573.856,372.831 566.5,372C 567.711,371.107 567.711,370.274 566.5,369.5C 563.539,370.183 563.205,371.016 565.5,372C 550.289,373.241 537.622,374.741 527.5,376.5C 501.003,376.311 474.336,376.644 447.5,377.5C 447.5,376.167 447.5,374.833 447.5,373.5C 468.83,372.948 490.163,372.448 511.5,372C 498.167,371.667 484.833,371.333 471.5,371C 489.5,370.667 507.5,370.333 525.5,370C 508.742,369.972 492.075,369.305 475.5,368C 493.111,366.555 510.777,366.055 528.5,366.5C 533.492,366.001 538.492,365.501 543.5,365C 541.285,363.956 538.952,363.29 536.5,363C 537,362.5 537.5,362 538,361.5C 538.409,348.091 537.742,334.758 536,321.5C 535.171,332.146 534.671,332.146 534.5,321.5C 533.448,321.649 532.448,321.483 531.5,321C 534.167,320.333 536.833,319.667 539.5,319C 532.491,318.164 525.825,316.164 519.5,313C 522.226,312.818 524.893,312.318 527.5,311.5C 526.359,310.575 526.359,309.741 527.5,309C 520.026,308.768 512.693,307.768 505.5,306C 506.5,305.667 507.5,305.333 508.5,305C 505.175,297.348 501.841,289.681 498.5,282C 499.312,279.418 498.479,277.251 496,275.5C 495.586,275.957 495.086,276.291 494.5,276.5C 493.452,272.735 492.118,269.069 490.5,265.5C 489.624,264.749 488.624,264.249 487.5,264C 491.032,263.919 494.532,264.419 498,265.5C 498.833,265.167 499.667,264.833 500.5,264.5C 495.904,263.414 491.57,261.747 487.5,259.5C 488.376,258.749 489.376,258.249 490.5,258C 485.326,255.911 480.159,253.745 475,251.5C 472.824,250.484 471.657,248.818 471.5,246.5C 465.315,245.323 460.315,242.156 456.5,237C 453.475,236.867 450.808,235.867 448.5,234C 450.715,233.83 452.715,233.163 454.5,232C 450.165,231.737 445.832,231.903 441.5,232.5C 441.762,231.022 441.429,229.689 440.5,228.5C 438.502,226.666 436.168,225.666 433.5,225.5C 434.11,224.609 434.443,223.609 434.5,222.5 Z"/></g>
<g><path style="opacity:0.314" fill="#65728e" d="M 119.5,250.5 C 120.833,251.167 120.833,251.167 119.5,250.5 Z"/></g>
<g><path style="opacity:1" fill="#aaaaaa" d="M 333.5,243.5 C 335.5,243.5 337.5,243.5 339.5,243.5C 339.5,244.5 339.5,245.5 339.5,246.5C 346.003,244.18 351.67,245.347 356.5,250C 355.584,250.278 354.918,250.778 354.5,251.5C 352.759,253.977 351.259,256.644 350,259.5C 349.501,265.157 349.334,270.824 349.5,276.5C 349.646,278.942 348.813,279.609 347,278.5C 345.935,280.396 345.102,280.563 344.5,279C 344.93,277.566 345.764,276.399 347,275.5C 347.5,268.174 347.666,260.841 347.5,253.5C 342.833,253.5 338.167,253.5 333.5,253.5C 333.5,250.167 333.5,246.833 333.5,243.5 Z"/></g>
<g><path style="opacity:1" fill="#a8a8a9" d="M 242.5,173.5 C 240.678,181.313 240.178,189.313 241,197.5C 249.088,198.317 257.255,198.817 265.5,199C 263.676,199.66 262.343,200.827 261.5,202.5C 260.761,202.369 260.094,202.536 259.5,203C 260.656,217.425 260.823,231.925 260,246.5C 255.306,249.349 250.973,252.682 247,256.5C 246.825,283.876 246.325,311.209 245.5,338.5C 250.987,343.076 256.653,347.409 262.5,351.5C 264.923,353.365 266.589,355.698 267.5,358.5C 266.94,366.401 267.607,374.068 269.5,381.5C 262.8,381.17 256.134,381.503 249.5,382.5C 247.5,383.5 245.5,384.5 243.5,385.5C 241.303,384.934 239.136,384.268 237,383.5C 233.733,386.114 230.066,387.781 226,388.5C 224.134,387.473 222.3,386.473 220.5,385.5C 218.96,383.162 218.294,380.495 218.5,377.5C 214.629,377.815 210.962,377.482 207.5,376.5C 211.5,376.5 215.5,376.5 219.5,376.5C 219.033,379.38 219.866,381.713 222,383.5C 224.584,382.896 227.084,382.063 229.5,381C 229.833,380 230.167,379 230.5,378C 231.448,377.517 232.448,377.351 233.5,377.5C 233.67,376.178 233.337,375.011 232.5,374C 233.428,373.612 234.095,372.945 234.5,372C 233.165,370.326 231.831,368.659 230.5,367C 231.357,366.311 232.023,365.478 232.5,364.5C 230.807,363.772 229.307,362.772 228,361.5C 227.431,357.639 226.598,357.639 225.5,361.5C 224.526,359.257 224.192,356.924 224.5,354.5C 225.833,354.5 227.167,354.5 228.5,354.5C 228.342,350.788 228.342,347.288 228.5,344C 227.672,343.085 226.672,342.419 225.5,342C 226.672,341.581 227.672,340.915 228.5,340C 224.284,338.796 219.951,338.13 215.5,338C 216.253,336.513 217.086,336.346 218,337.5C 218.497,335.19 218.663,332.857 218.5,330.5C 220.766,330.141 222.599,330.808 224,332.5C 226.038,330.928 228.371,329.928 231,329.5C 231.189,313.968 231.689,298.468 232.5,283C 231.892,276.705 230.559,270.705 228.5,265C 230.163,260.823 228.83,258.323 224.5,257.5C 224.5,255.167 224.5,252.833 224.5,250.5C 226.5,250.5 228.5,250.5 230.5,250.5C 230.215,252.288 230.548,253.955 231.5,255.5C 234.057,247.374 235.057,239.041 234.5,230.5C 233.448,230.649 232.448,230.483 231.5,230C 232.833,229.667 234.167,229.333 235.5,229C 231.148,228.581 230.815,227.914 234.5,227C 215.496,226.122 215.163,225.122 233.5,224C 230.999,222.582 231.332,221.582 234.5,221C 230.815,220.086 231.148,219.419 235.5,219C 234.167,218 232.833,217 231.5,216C 232.167,215.667 232.833,215.333 233.5,215C 227.097,213.577 227.431,212.743 234.5,212.5C 236.456,202.075 237.456,191.408 237.5,180.5C 234.421,181.372 231.421,181.372 228.5,180.5C 227.972,179.279 227.305,178.113 226.5,177C 228.259,173.483 230.092,169.983 232,166.5C 233.785,170.014 235.119,173.681 236,177.5C 236.818,173.716 237.818,170.05 239,166.5C 240.71,168.586 241.877,170.92 242.5,173.5 Z"/></g>
<g><path style="opacity:1" fill="#c0c0c0" d="M 303.5,67.5 C 319.992,68.4965 336.658,68.8298 353.5,68.5C 355.117,84.7896 356.284,101.123 357,117.5C 354.26,116.718 351.426,116.218 348.5,116C 350.014,114.561 350.347,113.061 349.5,111.5C 348.614,112.325 348.281,113.325 348.5,114.5C 338.828,114.334 329.161,114.5 319.5,115C 325.833,115.333 332.167,115.667 338.5,116C 327.992,116.17 317.659,116.67 307.5,117.5C 304.5,117.5 301.5,117.5 298.5,117.5C 297.629,127.819 296.963,138.152 296.5,148.5C 316.155,147.239 335.822,147.239 355.5,148.5C 355.755,149.936 356.088,151.436 356.5,153C 358.107,152.981 359.774,152.815 361.5,152.5C 361.666,161.506 361.5,170.506 361,179.5C 358.212,181.412 356.879,184.079 357,187.5C 355.913,185.068 355.413,185.402 355.5,188.5C 352.833,188.5 350.167,188.5 347.5,188.5C 347.5,183.167 347.5,177.833 347.5,172.5C 347.5,171.5 347.5,170.5 347.5,169.5C 342.5,169.5 337.5,169.5 332.5,169.5C 330.751,187.454 330.084,208.788 330.5,233.5C 329.502,210.006 329.169,186.339 329.5,162.5C 326.941,162.198 324.607,162.532 322.5,163.5C 323.551,208.16 324.218,252.827 324.5,297.5C 324.5,298.833 324.5,300.167 324.5,301.5C 325.9,302.1 326.9,303.1 327.5,304.5C 325.856,304.286 324.356,304.62 323,305.5C 322.5,307.5 322,309.5 321.5,311.5C 322.136,323.05 322.802,334.55 323.5,346C 322.207,346.49 320.873,346.657 319.5,346.5C 319.5,344.5 319.5,342.5 319.5,340.5C 315.818,340.665 312.152,340.499 308.5,340C 312.089,339.793 315.589,339.293 319,338.5C 319.817,332.984 319.651,327.65 318.5,322.5C 319.055,312.499 319.388,302.499 319.5,292.5C 319.291,291.006 318.624,289.839 317.5,289C 318.448,288.517 319.448,288.351 320.5,288.5C 321.347,277.176 321.514,265.842 321,254.5C 316.4,253.177 311.9,253.177 307.5,254.5C 307.334,260.842 307.5,267.175 308,273.5C 309.611,277.275 312.111,280.275 315.5,282.5C 315.11,284.39 316.11,285.89 318.5,287C 314.454,289.174 310.121,290.007 305.5,289.5C 305.784,325.512 305.784,361.512 305.5,397.5C 304.5,397.5 303.5,397.5 302.5,397.5C 295.62,397.893 288.62,397.56 281.5,396.5C 280.833,395.833 280.167,395.167 279.5,394.5C 280.5,394.5 281.5,394.5 282.5,394.5C 282.297,392.61 282.963,391.11 284.5,390C 283.874,389.25 283.374,388.416 283,387.5C 282.667,387.833 282.333,388.167 282,388.5C 280.901,382.192 277.401,380.192 271.5,382.5C 270.833,382.167 270.167,381.833 269.5,381.5C 267.607,374.068 266.94,366.401 267.5,358.5C 269.161,337.849 270.161,316.849 270.5,295.5C 272.641,295.888 274.641,295.888 276.5,295.5C 274.939,288.511 274.273,281.177 274.5,273.5C 275.186,248.506 275.519,223.506 275.5,198.5C 278.833,198.5 282.167,198.5 285.5,198.5C 286.239,198.369 286.906,198.536 287.5,199C 283.551,199.807 283.551,200.307 287.5,200.5C 287.83,265.208 287.496,329.875 286.5,394.5C 290.107,395.489 293.774,395.823 297.5,395.5C 297.601,349.257 296.935,303.09 295.5,257C 298.033,255.084 298.033,253.084 295.5,251C 303.64,250.999 311.64,250.832 319.5,250.5C 319.5,248.167 319.5,245.833 319.5,243.5C 319.5,237.5 319.5,231.5 319.5,225.5C 320.015,206.504 320.348,187.504 320.5,168.5C 315.305,168.179 310.305,168.513 305.5,169.5C 305.5,175.833 305.5,182.167 305.5,188.5C 300.305,188.179 295.305,188.513 290.5,189.5C 288.5,188.5 286.5,187.5 284.5,186.5C 281.808,186.274 278.808,185.774 275.5,185C 274.871,182.625 273.871,180.459 272.5,178.5C 275.673,179.639 276.34,178.473 274.5,175C 277.309,165.409 279.643,155.909 281.5,146.5C 280.833,146.167 280.167,145.833 279.5,145.5C 281.683,142.867 282.016,140.034 280.5,137C 281.448,136.517 282.448,136.351 283.5,136.5C 283.335,132.818 283.501,129.152 284,125.5C 285.018,126.706 285.518,126.373 285.5,124.5C 285.392,123.558 285.059,122.725 284.5,122C 285.578,121.326 286.245,120.326 286.5,119C 287.18,114.523 287.68,110.023 288,105.5C 291.319,94.3144 293.985,82.3144 296,69.5C 296.249,68.376 296.749,67.376 297.5,66.5C 299.409,67.3482 301.409,67.6816 303.5,67.5 Z"/></g>
<g><path style="opacity:1" fill="#888888" d="M 319.5,225.5 C 319.5,231.5 319.5,237.5 319.5,243.5C 311.493,243.666 303.493,243.5 295.5,243C 298.817,242.502 302.15,242.335 305.5,242.5C 305.5,236.833 305.5,231.167 305.5,225.5C 310.167,225.5 314.833,225.5 319.5,225.5 Z"/></g>
<g><path style="opacity:1" fill="#1a1a1a" d="M 293.5,118.5 C 294.5,118.5 295.5,118.5 296.5,118.5C 295.966,128.509 295.299,138.509 294.5,148.5C 290.43,148.905 287.43,150.905 285.5,154.5C 286.118,144.201 287.618,133.868 290,123.5C 290.997,121.677 292.164,120.01 293.5,118.5 Z"/></g>
<g><path style="opacity:0.063" fill="#5e6f8f" d="M 95.5,260.5 C 96.8333,261.167 96.8333,261.167 95.5,260.5 Z"/></g>
<g><path style="opacity:1" fill="#8a8a8b" d="M 463.5,232.5 C 500.481,243.768 537.481,256.101 574.5,269.5C 575.167,269.167 575.833,268.833 576.5,268.5C 591.12,274.833 606.453,280.5 622.5,285.5C 624.123,284.524 625.457,285.024 626.5,287C 628.436,287.813 630.436,288.313 632.5,288.5C 632.171,318.074 632.505,347.574 633.5,377C 598.196,376.54 562.862,376.374 527.5,376.5C 537.622,374.741 550.289,373.241 565.5,372C 563.205,371.016 563.539,370.183 566.5,369.5C 567.711,370.274 567.711,371.107 566.5,372C 573.856,372.831 581.189,372.665 588.5,371.5C 589.55,369.898 588.883,369.065 586.5,369C 580.023,368.334 573.69,367.834 567.5,367.5C 568,366.5 568.5,365.5 569,364.5C 574.599,365.825 580.099,365.825 585.5,364.5C 585.667,340.164 585.5,315.831 585,291.5C 580.505,288.835 575.672,287.168 570.5,286.5C 570.5,295.5 570.5,304.5 570.5,313.5C 569.167,313.5 567.833,313.5 566.5,313.5C 566.831,321.528 566.498,329.528 565.5,337.5C 564.668,327.851 564.168,318.184 564,308.5C 563.727,310.101 563.227,311.601 562.5,313C 563.684,329.018 563.684,345.184 562.5,361.5C 561.667,347.178 561.167,332.845 561,318.5C 560.667,317.833 560.333,317.167 560,316.5C 554.522,317.733 549.022,317.566 543.5,316C 549.321,314.05 555.321,313.217 561.5,313.5C 561.628,311.345 561.128,309.345 560,307.5C 559.517,308.448 559.351,309.448 559.5,310.5C 554.167,310.167 548.833,309.833 543.5,309.5C 543.5,308.5 543.5,307.5 543.5,306.5C 554.167,306.167 554.167,305.833 543.5,305.5C 543.485,294.915 542.818,294.915 541.5,305.5C 540.022,294.893 538.856,294.893 538,305.5C 537.667,298.167 537.333,290.833 537,283.5C 536.333,282.833 535.667,282.167 535,281.5C 534.667,284.167 534.333,286.833 534,289.5C 533.582,285.822 533.082,282.155 532.5,278.5C 532.335,275.994 533.335,274.161 535.5,273C 533.278,272.305 531.111,271.472 529,270.5C 528.5,270.833 528,271.167 527.5,271.5C 528.737,272.281 529.737,273.281 530.5,274.5C 527.851,279.791 525.684,279.458 524,273.5C 523.667,273.833 523.333,274.167 523,274.5C 520.985,272.654 518.819,270.987 516.5,269.5C 517.5,268.833 518.5,268.167 519.5,267.5C 516.938,266.359 514.272,265.526 511.5,265C 512.5,264.667 513.5,264.333 514.5,264C 512.731,262.936 511.064,261.769 509.5,260.5C 505.14,262.51 501.14,261.677 497.5,258C 498.5,257.667 499.5,257.333 500.5,257C 498.308,255.641 496.641,253.808 495.5,251.5C 490.437,250.531 485.104,249.698 479.5,249C 478.874,248.25 478.374,247.416 478,246.5C 477.333,247.833 476.667,247.833 476,246.5C 475.517,245.552 475.351,244.552 475.5,243.5C 470.658,242.588 465.991,241.255 461.5,239.5C 459.973,237.807 458.64,235.973 457.5,234C 459.708,233.809 461.708,233.309 463.5,232.5 Z"/></g>
<g><path style="opacity:1" fill="#141414" d="M 307.5,254.5 C 311.5,254.5 315.5,254.5 319.5,254.5C 319.666,264.506 319.5,274.506 319,284.5C 317.887,283.695 316.721,283.028 315.5,282.5C 312.111,280.275 309.611,277.275 308,273.5C 307.5,267.175 307.334,260.842 307.5,254.5 Z"/></g>
<g><path style="opacity:1" fill="#959594" d="M 275.5,198.5 C 275.519,223.506 275.186,248.506 274.5,273.5C 273.776,279.523 273.11,285.689 272.5,292C 271.863,293.713 270.863,293.879 269.5,292.5C 268.702,294.078 268.202,295.744 268,297.5C 267.89,295.152 266.723,293.652 264.5,293C 268.185,292.086 267.852,291.419 263.5,291C 266.319,290.932 268.486,289.766 270,287.5C 270.333,274.833 270.667,262.167 271,249.5C 271.001,246.313 271.834,243.48 273.5,241C 272.833,240.667 272.167,240.333 271.5,240C 274.028,238.983 274.028,237.816 271.5,236.5C 273.571,235.024 274.571,233.024 274.5,230.5C 273.448,230.649 272.448,230.483 271.5,230C 272.833,229.333 272.833,228.667 271.5,228C 272.167,227.667 272.833,227.333 273.5,227C 273.943,225.482 273.276,224.315 271.5,223.5C 273.424,215.704 274.091,207.704 273.5,199.5C 274.167,199.167 274.833,198.833 275.5,198.5 Z"/></g>
<g><path style="opacity:0.063" fill="#4f6f8f" d="M 622.5,282.5 C 623.833,283.167 623.833,283.167 622.5,282.5 Z"/></g>
<g><path style="opacity:1" fill="#aaaaaa" d="M 77.5,286.5 C 78.8333,286.5 80.1667,286.5 81.5,286.5C 81.5,312.5 81.5,338.5 81.5,364.5C 76.8333,364.5 72.1667,364.5 67.5,364.5C 67.3334,339.831 67.5,315.164 68,290.5C 71.6054,289.964 74.772,288.631 77.5,286.5 Z"/></g>
<g><path style="opacity:1" fill="#a8a8a8" d="M 307.5,254.5 C 311.9,253.177 316.4,253.177 321,254.5C 321.514,265.842 321.347,277.176 320.5,288.5C 319.448,288.351 318.448,288.517 317.5,289C 318.624,289.839 319.291,291.006 319.5,292.5C 319.388,302.499 319.055,312.499 318.5,322.5C 319.651,327.65 319.817,332.984 319,338.5C 315.589,339.293 312.089,339.793 308.5,340C 312.152,340.499 315.818,340.665 319.5,340.5C 319.5,342.5 319.5,344.5 319.5,346.5C 320.873,346.657 322.207,346.49 323.5,346C 322.802,334.55 322.136,323.05 321.5,311.5C 322,309.5 322.5,307.5 323,305.5C 324.356,304.62 325.856,304.286 327.5,304.5C 327.5,304.833 327.5,305.167 327.5,305.5C 326.5,305.5 325.5,305.5 324.5,305.5C 324.169,331.005 324.502,356.339 325.5,381.5C 326.5,381.5 327.5,381.5 328.5,381.5C 328.174,372.983 328.507,364.65 329.5,356.5C 330.097,366.097 329.431,375.43 327.5,384.5C 326.178,384.33 325.011,384.663 324,385.5C 322.878,378.922 322.044,378.922 321.5,385.5C 321.613,387.641 322.28,389.475 323.5,391C 320.833,392 320.833,393 323.5,394C 321.069,395.092 321.069,396.259 323.5,397.5C 322.624,397.369 321.957,397.702 321.5,398.5C 321.723,399.967 322.056,401.467 322.5,403C 321.874,403.75 321.374,404.584 321,405.5C 320.667,399.5 320.333,393.5 320,387.5C 318.13,397.721 318.13,408.054 320,418.5C 320.893,417.289 321.726,417.289 322.5,418.5C 320.392,419.944 318.059,420.61 315.5,420.5C 312.897,418.583 310.563,416.417 308.5,414C 308.833,413.667 309.167,413.333 309.5,413C 308.151,412.228 307.318,411.061 307,409.5C 306.329,408.748 305.496,408.414 304.5,408.5C 303.988,405.122 303.321,401.455 302.5,397.5C 303.5,397.5 304.5,397.5 305.5,397.5C 305.784,361.512 305.784,325.512 305.5,289.5C 310.121,290.007 314.454,289.174 318.5,287C 316.11,285.89 315.11,284.39 315.5,282.5C 316.721,283.028 317.887,283.695 319,284.5C 319.5,274.506 319.666,264.506 319.5,254.5C 315.5,254.5 311.5,254.5 307.5,254.5 Z"/></g>
<g><path style="opacity:1" fill="#505050" d="M 347.5,172.5 C 346.194,172.879 344.861,173.212 343.5,173.5C 343.808,174.308 344.308,174.975 345,175.5C 345.167,179.167 345.333,182.833 345.5,186.5C 345.489,190.565 344.822,194.232 343.5,197.5C 343.5,190.833 343.5,184.167 343.5,177.5C 342.293,174.016 339.793,172.016 336,171.5C 332.997,171.743 331.83,173.41 332.5,176.5C 335.681,176.258 338.681,176.258 341.5,176.5C 338.694,177.168 336.028,177.834 333.5,178.5C 333.5,184.5 333.5,190.5 333.5,196.5C 335.167,196.5 336.833,196.5 338.5,196.5C 339.327,191.015 339.827,185.348 340,179.5C 340.5,185.825 340.666,192.158 340.5,198.5C 338.167,198.5 335.833,198.5 333.5,198.5C 333.5,213.167 333.5,227.833 333.5,242.5C 333.5,242.833 333.5,243.167 333.5,243.5C 333.5,246.833 333.5,250.167 333.5,253.5C 338.167,253.5 342.833,253.5 347.5,253.5C 347.666,260.841 347.5,268.174 347,275.5C 345.764,276.399 344.93,277.566 344.5,279C 345.102,280.563 345.935,280.396 347,278.5C 348.813,279.609 349.646,278.942 349.5,276.5C 350.326,271.684 350.826,266.684 351,261.5C 352.336,284.209 354.336,306.875 357,329.5C 356.603,351.66 358.103,373.66 361.5,395.5C 360.866,396.947 359.699,397.613 358,397.5C 356.135,397.294 354.468,396.628 353,395.5C 352.127,395.735 351.293,396.069 350.5,396.5C 348.283,400.534 346.95,404.867 346.5,409.5C 342.896,412.079 340.562,415.412 339.5,419.5C 334.955,419.519 332.289,421.853 331.5,426.5C 332.165,428.101 332.499,429.601 332.5,431C 331.906,431.464 331.239,431.631 330.5,431.5C 330.3,415.627 329.3,399.96 327.5,384.5C 329.431,375.43 330.097,366.097 329.5,356.5C 329.5,321.5 329.5,286.5 329.5,251.5C 330.49,245.69 330.823,239.69 330.5,233.5C 330.084,208.788 330.751,187.454 332.5,169.5C 337.5,169.5 342.5,169.5 347.5,169.5C 347.5,170.5 347.5,171.5 347.5,172.5 Z"/></g>
<g><path style="opacity:1" fill="#0c0c0c" d="M 333.5,254.5 C 337.167,254.5 340.833,254.5 344.5,254.5C 344.666,261.175 344.5,267.842 344,274.5C 342.147,279.527 338.647,282.527 333.5,283.5C 333.5,273.833 333.5,264.167 333.5,254.5 Z"/></g>
<g><path style="opacity:1" fill="#acacac" d="M 333.5,178.5 C 335.167,178.5 336.833,178.5 338.5,178.5C 338.5,184.5 338.5,190.5 338.5,196.5C 336.833,196.5 335.167,196.5 333.5,196.5C 333.5,190.5 333.5,184.5 333.5,178.5 Z"/></g>
<g><path style="opacity:1" fill="#6f6f6f" d="M 585.5,364.5 C 580.57,364.803 575.737,364.469 571,363.5C 570.5,346.837 570.333,330.17 570.5,313.5C 570.5,304.5 570.5,295.5 570.5,286.5C 575.672,287.168 580.505,288.835 585,291.5C 585.5,315.831 585.667,340.164 585.5,364.5 Z"/></g>
<g><path style="opacity:1" fill="#0f0f0f" d="M 333.5,305.5 C 337.058,310.262 340.391,315.262 343.5,320.5C 340.572,321.484 337.572,321.817 334.5,321.5C 334.756,323.937 335.423,326.271 336.5,328.5C 338.957,331.914 341.291,335.414 343.5,339C 340.183,339.498 336.85,339.665 333.5,339.5C 332.356,328.174 332.356,316.84 333.5,305.5 Z"/></g>
<g><path style="opacity:1" fill="#30302f" d="M 327.5,305.5 C 328.143,331.061 327.476,356.394 325.5,381.5C 324.502,356.339 324.169,331.005 324.5,305.5C 325.5,305.5 326.5,305.5 327.5,305.5 Z"/></g>
<g><path style="opacity:0.373" fill="#333c49" d="M 656.5,322.5 C 655.525,320.46 656.192,320.127 658.5,321.5C 658.043,322.298 657.376,322.631 656.5,322.5 Z"/></g>
<g><path style="opacity:0.063" fill="#5e6f7e" d="M 656.5,322.5 C 655.833,323.167 655.833,323.167 656.5,322.5 Z"/></g>
<g><path style="opacity:1" fill="#1b1b1a" d="M 318.5,322.5 C 318.66,324.199 318.494,325.866 318,327.5C 308.25,323.652 308.416,321.986 318.5,322.5 Z"/></g>
<g><path style="opacity:1" fill="#717171" d="M 433.5,225.5 C 436.168,225.666 438.502,226.666 440.5,228.5C 441.429,229.689 441.762,231.022 441.5,232.5C 445.832,231.903 450.165,231.737 454.5,232C 452.715,233.163 450.715,233.83 448.5,234C 450.808,235.867 453.475,236.867 456.5,237C 460.315,242.156 465.315,245.323 471.5,246.5C 471.657,248.818 472.824,250.484 475,251.5C 480.159,253.745 485.326,255.911 490.5,258C 489.376,258.249 488.376,258.749 487.5,259.5C 491.57,261.747 495.904,263.414 500.5,264.5C 499.667,264.833 498.833,265.167 498,265.5C 494.532,264.419 491.032,263.919 487.5,264C 488.624,264.249 489.624,264.749 490.5,265.5C 492.118,269.069 493.452,272.735 494.5,276.5C 495.086,276.291 495.586,275.957 496,275.5C 498.479,277.251 499.312,279.418 498.5,282C 501.841,289.681 505.175,297.348 508.5,305C 507.5,305.333 506.5,305.667 505.5,306C 512.693,307.768 520.026,308.768 527.5,309C 526.359,309.741 526.359,310.575 527.5,311.5C 524.893,312.318 522.226,312.818 519.5,313C 525.825,316.164 532.491,318.164 539.5,319C 536.833,319.667 534.167,320.333 531.5,321C 532.448,321.483 533.448,321.649 534.5,321.5C 534.671,332.146 535.171,332.146 536,321.5C 537.742,334.758 538.409,348.091 538,361.5C 537.5,362 537,362.5 536.5,363C 538.952,363.29 541.285,363.956 543.5,365C 538.492,365.501 533.492,366.001 528.5,366.5C 527.016,359.576 525.849,352.576 525,345.5C 524,356.167 523,356.167 522,345.5C 520.545,350.67 520.711,355.67 522.5,360.5C 501.705,360.978 482.038,360.978 463.5,360.5C 469.599,360.235 474.766,357.902 479,353.5C 479.333,354.167 479.667,354.833 480,355.5C 481.786,354.213 481.953,352.713 480.5,351C 483.457,347.012 484.79,342.512 484.5,337.5C 486.167,337.5 487.833,337.5 489.5,337.5C 489.5,334.833 489.5,332.167 489.5,329.5C 490.552,329.649 491.552,329.483 492.5,329C 491.167,328.667 489.833,328.333 488.5,328C 490.715,326.956 493.048,326.29 495.5,326C 491.814,325.441 488.147,324.774 484.5,324C 493.504,323.381 502.504,322.714 511.5,322C 506.177,321.501 500.844,321.334 495.5,321.5C 495.5,319.833 495.5,318.167 495.5,316.5C 492.763,315.969 490.096,315.136 487.5,314C 519.496,311.502 519.496,309.335 487.5,307.5C 487.5,304.167 487.5,300.833 487.5,297.5C 486.5,297.5 485.5,297.5 484.5,297.5C 484.012,294.289 484.679,291.456 486.5,289C 484.595,287.13 482.428,285.63 480,284.5C 479.517,283.552 479.351,282.552 479.5,281.5C 482.926,281.65 483.259,280.484 480.5,278C 478.003,277.588 476.003,276.422 474.5,274.5C 475.729,273.719 477.062,273.219 478.5,273C 476.595,271.13 474.428,269.63 472,268.5C 471.517,267.552 471.351,266.552 471.5,265.5C 475.5,265.167 475.5,264.833 471.5,264.5C 471.719,263.325 471.386,262.325 470.5,261.5C 467.745,259.99 465.412,257.99 463.5,255.5C 466.025,256.027 468.692,256.027 471.5,255.5C 466.252,253.031 460.918,250.864 455.5,249C 456.833,248.667 458.167,248.333 459.5,248C 456.009,245.772 452.342,243.939 448.5,242.5C 445.376,246.15 441.876,246.483 438,243.5C 436.779,244.272 435.779,245.272 435,246.5C 434.761,239.452 434.261,232.452 433.5,225.5 Z"/></g>
<g><path style="opacity:1" fill="#545453" d="M 432.5,249.5 C 433.117,249.611 433.617,249.944 434,250.5C 434.479,271.23 434.812,291.896 435,312.5C 437.31,310.082 437.976,310.748 437,314.5C 435.658,313.098 434.824,313.431 434.5,315.5C 434.833,316.167 435.167,316.833 435.5,317.5C 436.425,316.359 437.259,316.359 438,317.5C 440.365,332.153 442.531,346.82 444.5,361.5C 443.5,361.5 442.5,361.5 441.5,361.5C 441.251,364.575 442.585,365.242 445.5,363.5C 446.5,363.667 447.5,363.833 448.5,364C 444.448,367.186 439.782,368.353 434.5,367.5C 434.5,369.5 434.5,371.5 434.5,373.5C 433.5,373.5 432.5,373.5 431.5,373.5C 431.657,374.873 431.49,376.207 431,377.5C 430.166,373.998 429.333,370.498 428.5,367C 429.898,365.351 429.564,364.018 427.5,363C 423.249,361.805 418.915,361.305 414.5,361.5C 414.5,359.167 414.5,356.833 414.5,354.5C 419.5,354.5 424.5,354.5 429.5,354.5C 429.665,350.818 429.499,347.152 429,343.5C 427.176,342.251 427.343,341.085 429.5,340C 424.789,337.858 419.789,337.024 414.5,337.5C 414.5,335.167 414.5,332.833 414.5,330.5C 416.5,330.5 418.5,330.5 420.5,330.5C 421.614,335.629 422.281,335.629 422.5,330.5C 424.833,330.5 427.167,330.5 429.5,330.5C 429.339,306.914 429.339,283.58 429.5,260.5C 428.653,259.155 427.487,258.155 426,257.5C 425.472,250.927 424.638,250.927 423.5,257.5C 422.526,255.257 422.192,252.924 422.5,250.5C 426.042,250.813 429.375,250.479 432.5,249.5 Z"/></g>
<g><path style="opacity:1" fill="#7c828f" d="M 20.5,289.5 C 20.5,318.5 20.5,347.5 20.5,376.5C 20.1667,376.5 19.8333,376.5 19.5,376.5C 19.7347,349.843 19.4014,323.176 18.5,296.5C 19.0671,294.018 19.7337,291.684 20.5,289.5 Z"/></g>
<g><path style="opacity:1" fill="#898989" d="M 329.5,251.5 C 329.5,286.5 329.5,321.5 329.5,356.5C 328.507,364.65 328.174,372.983 328.5,381.5C 327.5,381.5 326.5,381.5 325.5,381.5C 327.476,356.394 328.143,331.061 327.5,305.5C 327.5,305.167 327.5,304.833 327.5,304.5C 326.9,303.1 325.9,302.1 324.5,301.5C 325.5,301.5 326.5,301.5 327.5,301.5C 328.16,280.507 328.66,259.507 329,238.5C 329.499,242.821 329.666,247.154 329.5,251.5 Z"/></g>
<g><path style="opacity:1" fill="#0f0f0f" d="M 311.5,342.5 C 313.607,341.532 315.941,341.198 318.5,341.5C 318.657,342.873 318.49,344.207 318,345.5C 315.779,344.594 313.612,343.594 311.5,342.5 Z"/></g>
<g><path style="opacity:1" fill="#101010" d="M 333.5,342.5 C 335.074,342.937 336.241,343.937 337,345.5C 338.912,349.66 341.079,353.66 343.5,357.5C 340.232,358.487 336.898,358.82 333.5,358.5C 333.5,353.167 333.5,347.833 333.5,342.5 Z"/></g>
<g><path style="opacity:1" fill="#101010" d="M 310.5,360.5 C 312.948,359.527 315.615,359.194 318.5,359.5C 318.762,360.978 318.429,362.311 317.5,363.5C 315.261,362.212 312.928,361.212 310.5,360.5 Z"/></g>
<g><path style="opacity:0.314" fill="#3f5269" d="M 16.5,375.5 C 17.8333,376.167 17.8333,376.167 16.5,375.5 Z"/></g>
<g><path style="opacity:0.251" fill="#4a5366" d="M 19.5,376.5 C 18.8333,377.167 18.8333,377.167 19.5,376.5 Z"/></g>
<g><path style="opacity:1" fill="#d4d9df" d="M 279.5,394.5 C 267.678,393.505 255.678,393.172 243.5,393.5C 245.121,391.883 247.121,390.716 249.5,390C 258.186,389.832 266.852,389.332 275.5,388.5C 274.039,386.483 272.706,384.483 271.5,382.5C 277.401,380.192 280.901,382.192 282,388.5C 282.333,388.167 282.667,387.833 283,387.5C 283.374,388.416 283.874,389.25 284.5,390C 282.963,391.11 282.297,392.61 282.5,394.5C 281.5,394.5 280.5,394.5 279.5,394.5 Z"/></g>
<g><path style="opacity:1" fill="#808d9d" d="M 269.5,381.5 C 270.167,381.833 270.833,382.167 271.5,382.5C 272.706,384.483 274.039,386.483 275.5,388.5C 266.852,389.332 258.186,389.832 249.5,390C 247.121,390.716 245.121,391.883 243.5,393.5C 241.5,393.5 239.5,393.5 237.5,393.5C 229.867,394.639 224.201,391.972 220.5,385.5C 222.3,386.473 224.134,387.473 226,388.5C 230.066,387.781 233.733,386.114 237,383.5C 239.136,384.268 241.303,384.934 243.5,385.5C 245.5,384.5 247.5,383.5 249.5,382.5C 256.134,381.503 262.8,381.17 269.5,381.5 Z"/></g>
<g><path style="opacity:0.063" fill="#4e5f6e" d="M 426.5,392.5 C 427.833,393.167 427.833,393.167 426.5,392.5 Z"/></g>
<g><path style="opacity:1" fill="#54759a" d="M 237.5,393.5 C 239.5,393.5 241.5,393.5 243.5,393.5C 255.678,393.172 267.678,393.505 279.5,394.5C 280.167,395.167 280.833,395.833 281.5,396.5C 282.6,397.558 283.934,398.392 285.5,399C 284.376,399.249 283.376,399.749 282.5,400.5C 269.5,401.833 256.5,401.833 243.5,400.5C 241.184,398.343 239.184,396.01 237.5,393.5 Z"/></g>
<g><path style="opacity:1" fill="#5b7899" d="M 418.5,393.5 C 414.823,394.987 411.489,397.153 408.5,400C 408.833,400.333 409.167,400.667 409.5,401C 397.486,401.833 385.486,401.666 373.5,400.5C 372.147,399.476 371.48,398.143 371.5,396.5C 370.167,396.5 368.833,396.5 367.5,396.5C 367.044,392.889 367.711,389.556 369.5,386.5C 382.719,383.619 396.053,382.952 409.5,384.5C 411.021,386.291 412.854,387.624 415,388.5C 415.494,390.134 415.66,391.801 415.5,393.5C 416.5,393.5 417.5,393.5 418.5,393.5 Z"/></g>
<g><path style="opacity:1" fill="#e3e8ea" d="M 375.5,389.5 C 384.173,389.334 392.84,389.5 401.5,390C 404.032,390.619 406.365,391.619 408.5,393C 397.152,393.832 385.819,393.666 374.5,392.5C 375.127,391.583 375.461,390.583 375.5,389.5 Z"/></g>
<g><path style="opacity:0.125" fill="#666776" d="M 304.5,408.5 C 303.833,409.167 303.833,409.167 304.5,408.5 Z"/></g>
<g><path style="opacity:0.565" fill="#69788a" d="M 303.5,416.5 C 304.833,417.167 304.833,417.167 303.5,416.5 Z"/></g>
<g><path style="opacity:0.063" fill="#5e6f7e" d="M 311.5,419.5 C 312.833,420.167 312.833,420.167 311.5,419.5 Z"/></g>
<g><path style="opacity:1" fill="#6d6e71" d="M 323.5,397.5 C 323.627,408.069 323.294,418.403 322.5,428.5C 322.585,430.333 323.252,431.666 324.5,432.5C 323.054,433.613 321.387,433.78 319.5,433C 319.833,432.667 320.167,432.333 320.5,432C 319.707,428.589 319.207,425.089 319,421.5C 317.421,422.8 316.255,422.466 315.5,420.5C 318.059,420.61 320.392,419.944 322.5,418.5C 321.726,417.289 320.893,417.289 320,418.5C 318.13,408.054 318.13,397.721 320,387.5C 320.333,393.5 320.667,399.5 321,405.5C 321.374,404.584 321.874,403.75 322.5,403C 322.056,401.467 321.723,399.967 321.5,398.5C 321.957,397.702 322.624,397.369 323.5,397.5 Z"/></g>
<g><path style="opacity:1" fill="#2b2b2b" d="M 327.5,384.5 C 329.3,399.96 330.3,415.627 330.5,431.5C 331.85,432.65 331.684,433.317 330,433.5C 328.234,432.767 326.401,432.433 324.5,432.5C 323.252,431.666 322.585,430.333 322.5,428.5C 323.294,418.403 323.627,408.069 323.5,397.5C 321.069,396.259 321.069,395.092 323.5,394C 320.833,393 320.833,392 323.5,391C 322.28,389.475 321.613,387.641 321.5,385.5C 322.044,378.922 322.878,378.922 324,385.5C 325.011,384.663 326.178,384.33 327.5,384.5 Z"/></g>
<g><path style="opacity:0.125" fill="#4e5766" d="M 334.5,428.5 C 335.833,429.167 335.833,429.167 334.5,428.5 Z"/></g>
</svg>
